<svg xmlns="http://www.w3.org/2000/svg" viewBox="0 0 84.64 11.41"><defs><style>.cls-1{fill:#fff;}</style></defs><title>Barum</title><g id="Ebene_2" data-name="Ebene 2"><g id="Ebene_3" data-name="Ebene 3"><path class="cls-1" d="M12.91.48,13,0H8.62L8.43.83A29.07,29.07,0,0,0,0,2.47L.82,3.66A31,31,0,0,1,8.08,2.31L7.93,3A29.72,29.72,0,0,0,1.28,4.32l.86,1.21a31.28,31.28,0,0,1,5.43-1l-.16.71a29.64,29.64,0,0,0-4.82.94l.86,1.25a33.66,33.66,0,0,1,3.6-.67l-1,4.3h4.37l.17-.67c4.74,2.82,11.64-1.3,6.91-4.88C21.47,4,19.7-.93,12.91.48Zm1.37,7.61c-.22.86-1.77,1.61-3.38.8l.64-2.65C13.38,6,14.5,7.24,14.28,8.09ZM11.91,4.67l.63-2.75C15.57,1.55,16.05,4.53,11.91,4.67Z"/><path class="cls-1" d="M79.77,4l-.31,1.33C81.46,5.29,81.23,3.85,79.77,4Z"/><path class="cls-1" d="M79.29,6.08,79,7.48C80.82,8.1,81.38,6.14,79.29,6.08Z"/><path class="cls-1" d="M78.94,0a5.7,5.7,0,1,0,5.7,5.69A5.69,5.69,0,0,0,78.94,0Zm-.11,8.09-.07.32H76.65l.47-2.07a14.61,14.61,0,0,0-1.74.32L75,6.08a16,16,0,0,1,2.32-.45l.08-.34a15.39,15.39,0,0,0-2.62.48l-.41-.58a14.78,14.78,0,0,1,3.2-.63l.07-.34a15.11,15.11,0,0,0-3.5.65l-.39-.57a13.68,13.68,0,0,1,4.07-.79l.09-.4H80l0,.23c3.28-.68,4.13,1.67,2.23,2.42C84.45,7.49,81.12,9.47,78.83,8.11Z"/><path class="cls-1" d="M26.57,10.06c.43,2.47,5.89,1,7.49-.79H20C20.73,11.38,23.6,12.28,26.57,10.06Z"/><polygon class="cls-1" points="64.4 11.05 68.73 11.05 69.14 9.27 64.81 9.27 64.4 11.05"/><path class="cls-1" d="M35.39,10.33c.22,1.41,3.58,1.45,5.86,0,.36,1.26,3.56,1.44,5.85,0,.36,1.26,3.55,1.44,5.84,0l-.2.71h4.32l.42-1.78H35.64Z"/><polygon class="cls-1" points="58.54 11.05 62.93 11.05 63.34 9.27 58.96 9.27 58.54 11.05"/><path class="cls-1" d="M64.5,4.11c-.36-1.26-3.55-1.43-5.84,0l.2-.71H54.53l-.94,4.08a1.66,1.66,0,0,1-1.48,1.26l-.27-.06,1.22-5.28H48.67l-.93,4.08a1.68,1.68,0,0,1-1.49,1.27L46,8.67,47.2,3.4H42.87l-1,4.07a1.66,1.66,0,0,1-1.48,1.27l-.27-.07L41,4.83H38.56a1.61,1.61,0,0,1-1.51-1.17L37,3.39H34.07l-.92,4.08a1.59,1.59,0,0,1-1.49,1.18l-.27,0L32.61,3.4H28.23L28.07,4c-3.54-2.28-7.41.49-8.11,3a3.68,3.68,0,0,0,0,2.19H34.06a2.08,2.08,0,0,0,.32-.45l.13-.68A1.48,1.48,0,0,1,35.91,7h.27l-.54,2.29H57.48L58,7a1.61,1.61,0,0,1,1.38-1.31l.37.12L59,9.26h4.38L63.86,7a1.62,1.62,0,0,1,1.39-1.31l.37.12-.81,3.47h4.33l1.21-5.15C70,2.85,66.78,2.68,64.5,4.11ZM27.43,7.45a2.37,2.37,0,0,1-2.61,1C24,8.18,24,7,24.53,6.21a2.11,2.11,0,0,1,2.55-1A1.46,1.46,0,0,1,27.43,7.45Z"/></g></g></svg>