<svg xmlns="http://www.w3.org/2000/svg" viewBox="0 0 85.74 10.58"><defs><style>.cls-1{fill:#fff;}</style></defs><title>Bridestone</title><g id="Ebene_2" data-name="Ebene 2"><g id="Ebene_3" data-name="Ebene 3"><path class="cls-1" d="M37.8,5.92l-.82,3c-.17,0-.38,0-.72,0-1.6,0-1.42-.48-.74-3.09s1.11-3.21,2.11-3.21,1,.65.72,1.46h2.44c.39-1.52.13-2.88-2.72-2.88-3.18,0-4,.67-5.06,4.63-1,3.68-.64,4.66,2.79,4.66a15.17,15.17,0,0,0,3.3-.3l1.15-4.31Z"/><path class="cls-1" d="M43.62,8.88c-.32,0-.43-.1-.37-.36l.55-2.16h3.27l.36-1.43H44.17l.37-1.44a.87.87,0,0,1,.89-.7h2.62l.36-1.42H44.62C43,1.37,42.57,1.65,42,4L40.83,8.35c-.35,1.46.08,2.09,1.27,2.09h3.28a1.27,1.27,0,0,0,1.26-.87l.27-.69Z"/><path class="cls-1" d="M81,8.88c-.32,0-.43-.1-.37-.36l.55-2.16H84.4l.36-1.43H81.5l.37-1.44a.87.87,0,0,1,.89-.7h2.62l.36-1.42H82c-1.58,0-2,.28-2.66,2.65L78.16,8.35c-.35,1.46.08,2.09,1.27,2.09h3.28A1.26,1.26,0,0,0,84,9.57l.27-.69Z"/><path class="cls-1" d="M29.29,1.37H26l-2.27,8.8a.2.2,0,0,0,.2.27h2.91c3.65,0,4.27-.7,5.27-4.58.87-3.36.33-4.49-2.84-4.49M27.2,8.89h-.67l1.58-6.1h.78c1.41,0,1.41.47.74,3.08s-1.08,3-2.43,3"/><path class="cls-1" d="M75,1.35c-1.88,0-2.75,0-3.27,0l-2.28,8.8a.2.2,0,0,0,.2.27h2.18l2-7.65.82,0c1.06,0,1.2.38.92,1.46L74,10.17a.2.2,0,0,0,.2.27h2.18L78,4.23c.55-2.15-.39-2.88-3-2.88"/><path class="cls-1" d="M56.09,1.37l-.38,1.47h2.42s0,0,0,.05A2,2,0,0,0,57.4,4l-1.59,6.14a.2.2,0,0,0,.2.27h2.34l2-7.6h1.2A1.26,1.26,0,0,0,62.83,2l.23-.6Z"/><path class="cls-1" d="M22.1,10.44l2.28-8.8a.2.2,0,0,0-.2-.27H21.87l-2.27,8.8a.2.2,0,0,0,.19.27Z"/><path class="cls-1" d="M66.81,1.24c-2.75,0-3.94.49-5,4.66-.93,3.62-.18,4.67,2.61,4.67s4-.59,5-4.67C70.18,3,70,1.24,66.81,1.24m-2,7.8c-1,0-1.2-.38-.47-3.21.61-2.35,1.19-3.17,2.13-3.17s1.16.56.48,3.17S65.6,9,64.79,9"/><path class="cls-1" d="M1.43,6,2.85,1A1.4,1.4,0,0,1,4.13,0H8.47a.07.07,0,0,1,0,.13,48.78,48.78,0,0,0-7,5.9A.07.07,0,0,1,1.43,6"/><path class="cls-1" d="M4.86,9,6.27,4A.07.07,0,0,0,6.15,4,52.79,52.79,0,0,0,0,10.31a.08.08,0,0,0,.05.13H6.16c2.56,0,4-.8,4.48-2.7A2.15,2.15,0,0,0,9,4.87s0,0,0-.06a2.81,2.81,0,0,0,2.59-2.22C12,.86,10.65-.09,9.13,0L6.8,8.15a1.18,1.18,0,0,1-1,.81Z"/><path class="cls-1" d="M18.09,6.8a1.76,1.76,0,0,0-.3-.63s0,0,0-.06a2.79,2.79,0,0,0,2-2.09c.38-1.48-.55-2.65-2.9-2.65h-3.5l-2.27,8.8a.2.2,0,0,0,.19.27h2.19l2-7.65h.92c.84,0,1.15.52,1,1.22a1.81,1.81,0,0,1-1.8,1.44h-.33l.91,4.39a.72.72,0,0,0,.82.61h2Z"/><path class="cls-1" d="M47.8,7.37c-.93,2.21.28,3.21,2.73,3.21,2.24,0,3.48-.54,4-2.6a2.12,2.12,0,0,0-.37-1.93c-.84-.91-2.45-1.08-3-1.61a1,1,0,0,1-.2-1,1.13,1.13,0,0,1,1.2-.91c1,0,1,.62.79,1.36h2.17c.51-1.54-.15-2.76-2.71-2.76-2.16,0-3.32.85-3.74,2.47a2.43,2.43,0,0,0,.2,1.62c.59,1,2.15,1.14,3,1.74a.83.83,0,0,1,.29,1,1.25,1.25,0,0,1-1.33,1.11c-.73,0-1.16-.42-.75-1.74Z"/></g></g></svg>