<svg xmlns="http://www.w3.org/2000/svg" viewBox="0 0 65.4 11.89"><defs><style>.cls-1{fill:#fff;}</style></defs><title>Continentals</title><g id="Ebene_2" data-name="Ebene 2"><g id="Ebene_3" data-name="Ebene 3"><path class="cls-1" d="M21,9.19V8.62h.55V3.7H21V3.14h2.46V8.62H24v.57ZM50.1,8.47h0a1.8,1.8,0,0,1-1.55.83,1.68,1.68,0,0,1-1.6-1.85,2,2,0,0,1,2.24-2A2.35,2.35,0,0,1,50,5.6V5.22A1,1,0,0,0,48.9,4.09a1.74,1.74,0,0,0-1.38.71l-.34-.41A2.86,2.86,0,0,1,49.59,3a2.1,2.1,0,0,1,2.34,2.19v3.4h.61v.57H50.1ZM50,6.19a.6.6,0,0,0-.42-.12c-.57,0-.7.56-.7,1.14s.18,1,.67,1A.59.59,0,0,0,50,8.06Zm5.11,2.43h.74v.57H53.22V1.46h-.67V.91h2.58ZM19.8,3.7V8.17a.34.34,0,0,0,.39.38,1.2,1.2,0,0,0,.35-.06V9a2.41,2.41,0,0,1-1.17.22,1.31,1.31,0,0,1-1.49-1.44V3.7h-.65V3.29c.72-.57,1.55-1.23,2.21-1.78h.36V3.14h.74V3.7Zm1.56-2.16c0,.53.48.89,1.17.89s1.17-.36,1.17-.89S23.22.65,22.53.65s-1.17.36-1.17.89M14.6,5c0-.54-.17-1-.64-1s-.67.43-.67,1V8.62h.56v.57h-3V8.62h.56V3.7h-.56V3.14H13.2v.93h0a1.71,1.71,0,0,1,1.59-1,1.57,1.57,0,0,1,1.61,1.25,5.78,5.78,0,0,1,.08,1V8.62h.72v.57H14.6ZM4.23,6.17a3.05,3.05,0,1,0,6.08,0,3.05,3.05,0,1,0-6.08,0m2.24,0c0-1.85.18-2.66.8-2.66s.8.81.8,2.66-.17,2.66-.8,2.66-.8-.81-.8-2.66m26.67-.31c0-1.59.12-2.19.67-2.19s.66.58.68,2.19Zm2.77,1.74a1.66,1.66,0,0,1-1.33.56c-.56,0-1.41-.31-1.44-1.71h3.23c0-.11,0-.33,0-.44,0-1.7-.7-3-2.52-3s-2.76,1.4-2.76,3.15S32,9.3,33.87,9.3a2.45,2.45,0,0,0,2.36-1.42ZM8.05,0s1.46,1.46,2.13,2.21v.57A4.69,4.69,0,0,0,7.05,1.57a4.35,4.35,0,0,0-4.43,4.6,4.3,4.3,0,0,0,4.43,4.59,4.36,4.36,0,0,0,3.16-1.34V10a5.26,5.26,0,0,1-4.35,1.93A5.62,5.62,0,0,1,0,6.17,5.78,5.78,0,0,1,5.86.45,6.48,6.48,0,0,1,8.05.82ZM45.8,3.7V8.17a.34.34,0,0,0,.39.38,1.2,1.2,0,0,0,.35-.06V9a2.41,2.41,0,0,1-1.17.22,1.31,1.31,0,0,1-1.49-1.44V3.7h-.65V3.29c.72-.57,1.55-1.23,2.21-1.78h.36V3.14h.92V3.7ZM28.31,5c0-.54-.17-1-.64-1S27,4.5,27,5V8.62h.55v.57h-3V8.62h.56V3.7h-.56V3.14h2.39v.93h0a1.72,1.72,0,0,1,1.6-1,1.56,1.56,0,0,1,1.6,1.25,5.78,5.78,0,0,1,.08,1V8.62H31v.57H28.31ZM40.6,5c0-.54-.17-1-.64-1s-.66.43-.66,1V8.62h.55v.57h-3V8.62h.56V3.7h-.56V3.14H39.2v.93h0a1.72,1.72,0,0,1,1.6-1,1.56,1.56,0,0,1,1.6,1.25,5.78,5.78,0,0,1,.08,1V8.62h.72v.57H40.6ZM65.4,9.19H56.55V8.9H65.4ZM61,7.51l.83-.8.34.34-.89.77a1.66,1.66,0,0,0-.17.32h-.67A1.16,1.16,0,0,1,61,7.51M58.19,2.42l-.69.19a3.45,3.45,0,0,0-.45.21c-.13.09-.29.24-.29.32l.58.14A2.51,2.51,0,0,1,57.63,3l.13-.07.49-.49a.06.06,0,0,0-.06,0m4,1.62a11,11,0,0,1-1-1.27A3.75,3.75,0,0,0,61.44,1,3.73,3.73,0,0,0,61,.38C60.94.3,60.68,0,60.55,0l-.06,0,0,.33c-.35.23-.81.54-1.23.85a3.53,3.53,0,0,0,0,.36.59.59,0,0,0,.22.12,6.32,6.32,0,0,1,.8-.13l-.49.75-.58.41-.71-.23a.11.11,0,0,0-.12,0l-.52.57a.12.12,0,0,0,0,.12l0,.64s0,.1,0,.21a1,1,0,0,0,.21.68l.35-.5a1.44,1.44,0,0,1-.15-.36s0-.56,0-.56l.34-.24.88.62a5.28,5.28,0,0,0,.48.73,8.68,8.68,0,0,0,1.3.92,4.77,4.77,0,0,0,.18.7l1.09,1.11L61.87,8a.83.83,0,0,0-.42.65h.74l.08-.42.89-1a.15.15,0,0,0,0-.16l-.26-.86a1.47,1.47,0,0,0,.4-.94c0-.79-.86-1-1.13-1.21m1.39,1.31a3,3,0,0,0-.19-.56s0,0,.1,0l.54.36a7.28,7.28,0,0,1,.39,2.27A2.92,2.92,0,0,1,63.69,7Z"/></g></g></svg>