<svg xmlns="http://www.w3.org/2000/svg" viewBox="0 0 75.6 14.91"><defs><style>.cls-1,.cls-2{fill:#fff;}.cls-2{fill-rule:evenodd;}</style></defs><title>Falken</title><g id="Ebene_2" data-name="Ebene 2"><g id="Ebene_3" data-name="Ebene 3"><path class="cls-1" d="M53.44,10.8h1.81c.92,0,1.65.39,1.48,1.43a1.17,1.17,0,0,1-1,1.06v0a.87.87,0,0,1,.22.24l.68,1.34H54.94l-.45-1.32h0l-.2,1.32H52.8Zm1.18,1.82h.1c.25,0,.5,0,.54-.34s-.16-.36-.42-.36h-.11Z"/><path class="cls-1" d="M57.55,10.8h2.76l-.18,1.12H58.87l-.06.39H60l-.17,1.07H58.64l-.06.41h1.3l-.18,1.12H56.9Z"/><path class="cls-1" d="M61,10.8h1.49l-.65,4.11H60.33Z"/><path class="cls-1" d="M63.17,10.8h2.75L65.73,12H64.48l-.06.42h1.09l-.17,1.07H64.25L64,14.91h-1.5Z"/><path class="cls-1" d="M66.42,10.8h2.77L69,11.92H67.75l-.06.39h1.15l-.17,1.07H67.52l-.06.41h1.3l-.18,1.12h-2.8Z"/><path class="cls-1" d="M69.83,10.8h1.43l1,2.28h0a7.38,7.38,0,0,1,0-1.05l.2-1.23h1.42l-.64,4.11H71.87l-1-2.16h-.05a3.73,3.73,0,0,1,0,.82l-.21,1.34H69.18Z"/><path class="cls-2" d="M6.72,3.16,5.64,8.33H2L3.23,2.39C3.71.36,5.89,0,6.58,0h10.6L14.83,2.45H7.58a.79.79,0,0,0-.86.71"/><path class="cls-2" d="M10.45,8.31,17.79,1a4.7,4.7,0,0,1,2.79-1h5.26L24.07,8.33H20.52L22,1.09,17,6.15h3.76L19.23,8.31Z"/><polygon class="cls-2" points="25.45 8.3 27.19 0 30.89 0 29.59 6.09 36.67 6.09 35.08 8.34 25.45 8.3"/><polygon class="cls-2" points="38.28 0 36.52 8.34 40.22 8.34 41.01 4.29 44.94 8.3 49.26 8.3 45.18 4.34 51.26 0 46.06 0 41.07 3.93 41.95 0.03 38.28 0"/><path class="cls-2" d="M49.4,8.33H60.3l1.76-2.24H53.43l.17-.89h6.79l.41-2H54c.17-.53.3-.86.74-.89h7.28L62.53,0H53.81a2.93,2.93,0,0,0-3.23,2.42Z"/><path class="cls-2" d="M62.12,8.33,63.85,0h8.69c1.67,0,3.41.89,3,2.75L74.39,8.33h-3.7l1.12-5.11a.68.68,0,0,0-.59-.86H67.14l-1.24,6Z"/><path class="cls-2" d="M0,3.93H13.74L10.07,7.66A14.89,14.89,0,0,0,.18,4.23Z"/></g></g></svg>