<svg xmlns="http://www.w3.org/2000/svg" viewBox="0 0 85.04 15.37"><defs><style>.cls-1{fill:#fff;}</style></defs><title>Good Year</title><g id="Ebene_2" data-name="Ebene 2"><g id="Ebene_3" data-name="Ebene 3"><path class="cls-1" d="M42.37,4.91l2.34-1.37,0-.1a3.15,3.15,0,0,1,.07-1.72c-1.17.62-2.24,1.27-3.25,1.82l0,.1.74,1.23Z"/><path class="cls-1" d="M5.59,7.54s-.87,3.15-.87,3.21a2.2,2.2,0,0,1-1.14,0,.46.46,0,0,1-.23-.55L4.59,5.43a1,1,0,0,1,.48-.52A2.06,2.06,0,0,1,6.89,5s.3.16.56.32c.19-.36.39-.75.55-1.14C7.77,4,7.54,4,7.32,3.83A6.06,6.06,0,0,0,1.43,5.2,5.16,5.16,0,0,0,.17,10.1a2.4,2.4,0,0,0,2.27,1.69H8l.12-.06L9.17,7.54C8,7.51,6.83,7.54,5.59,7.54Z"/><path class="cls-1" d="M58.55,3.74H56.8c-.78.87-1.6,1.85-2.41,2.76-.13.1-.13.13-.19-.1-.26-.88-.52-1.79-.81-2.66H49.55l0,.09,1.3,4.42L50,11.83h3.87l1-3.55,3.77-4.51Z"/><path class="cls-1" d="M61.31,10.46l.49-1.88L62,8.45h1.82l.1-.1c.1-.42.23-.88.29-1.3L62.25,7v-.1c.2-.58.3-1.23.52-1.79.95-.06,2.08,0,3,0,.13-.42.23-.91.33-1.36h-6.7C58.68,6.4,58,9,57.28,11.7l0,.13h6.66a6.73,6.73,0,0,0,.33-1.34H61.51Z"/><path class="cls-1" d="M44.91,5.1A9.87,9.87,0,0,1,45.07,4a13.85,13.85,0,0,0-1.79,1A8.86,8.86,0,0,0,44.91,5.1Z"/><path class="cls-1" d="M42.57,6.73c.61-.26,1.26-.65,1.91-1l-1.82-.23A5.18,5.18,0,0,1,42.57,6.73Z"/><path class="cls-1" d="M44.39,10.36a22.88,22.88,0,0,1,3.37-2.47l-.68-1.16c-.29.26-.58.81-1,1a3.21,3.21,0,0,1-1-1.59c-.81.39-1.59.75-2.34,1.2.46,1,1,2.05,1.53,3.05Z"/><path class="cls-1" d="M43.9,10.79c-.46-1-1-2-1.53-3l-.13-.06a21.76,21.76,0,0,0-1.62,4,10.94,10.94,0,0,1-1.5,1.92.71.71,0,0,0-.22.71c0,.1.09.23.22.2C41.07,14,42.47,12.25,43.9,10.79Z"/><path class="cls-1" d="M48,8.32l-1.55,1c-2.31,1.5-3.81,4-6.24,5.27a5,5,0,0,0-1,.49c.1.13.1.32.29.29a9.68,9.68,0,0,0,2.7-1.63c1.85-1.75,3.8-3.86,6-5.1A.77.77,0,0,0,48,8.32Z"/><path class="cls-1" d="M50.23,3.25c.17,0,.59-.16.49-.29a.75.75,0,0,1-.49-.26,1.83,1.83,0,0,0,1.53-.46c-.32-.1-.68-.16-.81-.42,0-.07.06-.07.1-.1,1.65.16,3.6.42,5-.39A1.78,1.78,0,0,0,56.89,0a22.43,22.43,0,0,1-7,.16c-1.62,0-3.64-.22-4.48,1.43a2.39,2.39,0,0,0,.23,2.34,4,4,0,0,0,.16,2.31c.1.19.23.45.45.49A3.52,3.52,0,0,0,47,5.43c.13-.69.39.19.69.13a2,2,0,0,0,.26-1c.06-.29.29.16.52.2a1.81,1.81,0,0,0,.32-.72c.13-.32-.1-.65.1-.88A2,2,0,0,0,50.23,3.25Zm-3.47.55a.41.41,0,0,1-.42-.26c0-.39-.59-.32-.43-.68a4.81,4.81,0,0,0,.68.13,4.65,4.65,0,0,0,.17.71Zm2-2.47a.79.79,0,0,1-.85.42.8.8,0,0,1-.71.3c-.2,0-.46-.07-.52-.26.29,0,.68-.07.81-.46.13-.23.42,0,.62-.1a1.85,1.85,0,0,0,.39-.35,2.34,2.34,0,0,0,.84.06c.13,0,0,.16,0,.23A.88.88,0,0,1,48.71,1.33Z"/><path class="cls-1" d="M39.67,5.65a2.65,2.65,0,0,0-2.46-2H32.1L30,11.83h5.62a3.69,3.69,0,0,0,1.72-.65A5.43,5.43,0,0,0,39.67,5.65Zm-3.11.07-1.21,4.45a.64.64,0,0,1-.61.52h-1v-.07c0,.1,1.47-5.75,1.47-5.75.39,0,1-.16,1.26.26A1.28,1.28,0,0,1,36.56,5.72Z"/><path class="cls-1" d="M84.8,5a2.51,2.51,0,0,0-2.24-1.3c-1.82,0-3.38,0-5.81,0C76.1,6.34,75.32,9,74.6,11.83c1.07,0,2.18,0,3.44,0h.26l.59-2.25L79,9.42c.13,0,.39,0,.43.07L80,11.83h.13c1.53-.07,2.5,0,3.67,0-.22-1-.48-1.89-.65-2.9A5.17,5.17,0,0,0,84.58,7.6,2.66,2.66,0,0,0,84.8,5Zm-3.41.65-.52,2a.7.7,0,0,1-.65.49h-.94V8.12c0,.1.81-3.28.81-3.28.39,0,1-.16,1.27.23A1.34,1.34,0,0,1,81.39,5.69Z"/><path class="cls-1" d="M72.91,3.74H69.6c-1.63,2.66-3.32,5.39-4.94,8l0,.07h1.56A14.33,14.33,0,0,1,67,10.59h3v.1c0,.45,0,.75.07,1.14,1.2,0,2.34,0,3.61,0L73,3.93ZM69.76,9.29c-.58,0-1.36,0-2,0A31.91,31.91,0,0,1,69.44,6.5c.16.06.06.26.16.36l.23,2.37Z"/><path class="cls-1" d="M28.21,4.09a5.15,5.15,0,0,0-7.61,5,3.11,3.11,0,0,0,2.18,2.66,5.37,5.37,0,0,0,5.46-1.43C29.44,9,30.12,6.5,29.31,5.23A2.88,2.88,0,0,0,28.21,4.09Zm-3,6.24a.89.89,0,0,1-.87.65.6.6,0,0,1-.59-.68L25,5.43a.89.89,0,0,1,.84-.72.64.64,0,0,1,.62.75Z"/><path class="cls-1" d="M18,4.09a5.17,5.17,0,0,0-7.63,5,3.2,3.2,0,0,0,2.18,2.66A5.33,5.33,0,0,0,18,10.36C19.21,9,19.89,6.5,19.08,5.23A3,3,0,0,0,18,4.09ZM16.15,5.43,14.92,10.3a.84.84,0,0,1-.85.68.61.61,0,0,1-.58-.68l1.23-4.87a.91.91,0,0,1,.85-.72A.57.57,0,0,1,16.15,5.43Z"/></g></g></svg>