<svg id="Ebene_1" data-name="Ebene 1" xmlns="http://www.w3.org/2000/svg" width="116.34mm" height="21.1mm" viewBox="0 0 329.79 59.81"><defs><style>.cls-1{fill:#fff;}</style></defs><title>Hankook-logo-weiss</title><path class="cls-1" d="M98.18,6.57,94.84,17.5H84.45L87.8,6.57H75.91L66.76,36.48H78.64l3.84-12.54H92.87L89,36.48h11.89l9.15-29.91Z"/><path class="cls-1" d="M160.69,9.82l-.55.41,1.12-3.66H149.38l-9.15,29.91h11.89l5.53-18.06c.77-2.51,2.74-4.2,4.89-4.2h3a2.57,2.57,0,0,1,2.17.95,2.88,2.88,0,0,1,.51,1.75,5.64,5.64,0,0,1-.26,1.63L162.5,36.48h11.88l6.45-21.08a10.14,10.14,0,0,0,.45-2.89,6.38,6.38,0,0,0-1.17-3.85c-1.32-1.79-3.66-2.69-7-2.69a20.69,20.69,0,0,0-12.47,3.86"/><path class="cls-1" d="M123,23.43a16.32,16.32,0,0,1,5.92,1l.17.08-1.33,4.35-.09,0a17.26,17.26,0,0,1-6.65,1.48c-2,0-3.4-.47-4-1.35a2.11,2.11,0,0,1-.41-1.28,3,3,0,0,1,.15-.9c.65-2.13,3-3.4,6.29-3.4M113.62,8.72l1.84,6.35a28.12,28.12,0,0,1,9.36-2.18c3.68,0,5.76.5,6.55,1.56a2.23,2.23,0,0,1,.2,2.09L130.82,19l-.22-.07a29.63,29.63,0,0,0-8.85-1.59,18.42,18.42,0,0,0-10.33,2.86,13.64,13.64,0,0,0-5.51,7.39c-.82,2.69-.62,5,.59,6.61,1.41,1.9,4.18,2.91,8,2.91a26.4,26.4,0,0,0,11.15-2.64l.46-.22-.69,2.25h11.89l6.33-20.67a8.45,8.45,0,0,0,.39-2.45A5.68,5.68,0,0,0,143,9.91C141.06,7.33,136.65,6,130.23,6a58.18,58.18,0,0,0-16.6,2.76"/><path class="cls-1" d="M207,6.42l-11.39,9,2.76-9H186.52l-9.29,30.36H189.1l3.77-12.34,8.66,12.34h12.68L203.32,21.23l18-14.81Z"/><path class="cls-1" d="M223.58,28.25c-1-1.4-1.07-3.62-.1-6.78,1.18-3.85,3.86-8.43,9.95-8.43,2.34,0,3.9.58,4.78,1.77,1,1.4,1.07,3.62.1,6.78-1.18,3.84-3.85,8.43-9.94,8.43-2.34,0-3.9-.58-4.79-1.77M212,21.59h0c-1.29,4.22-.8,8.18,1.38,11.13,2.47,3.34,6.9,5.17,12.48,5.17,13.13,0,20.54-5.07,24-16.43,1.29-4.22.8-8.17-1.38-11.12C246,7,241.56,5.16,236,5.16c-12.07,0-20.82,6-24,16.43"/><path class="cls-1" d="M273,13c2.34,0,3.9.58,4.78,1.77,1,1.4,1.07,3.62.1,6.78C276.76,25.44,274.08,30,268,30c-2.34,0-3.9-.58-4.78-1.77-1-1.4-1.07-3.62-.1-6.78C264.28,17.62,267,13,273,13m-21.47,8.55h0c-1.29,4.22-.8,8.18,1.38,11.13,2.47,3.34,6.9,5.17,12.49,5.17,13.13,0,20.54-5.07,24-16.43,1.29-4.22.8-8.17-1.38-11.12-2.47-3.34-6.9-5.17-12.48-5.17-12.07,0-20.82,6-24,16.43"/><path class="cls-1" d="M316.29,6.16l-11.56,9.76,3-9.76H295.83L286.39,37h11.87l3.83-12.53s9.19,12.36,9.32,12.53h13L312.77,21.31s16.11-14.41,17-15.15Z"/><path class="cls-1" d="M70.3,1.46,70.15,0H60.08c1.15,11.89-7,25.16-18.73,28.32h0a.17.17,0,0,1-.23-.15.17.17,0,0,1,.07-.16h0c9.74-6.51,14.88-17,14-28H45.29c.43,9.69-6.07,18.52-16,22.1a.17.17,0,0,1-.23-.15.16.16,0,0,1,.08-.14h0C36.29,16.88,40.62,9.55,40.36,0H30.5C30.41,11.43,20.13,19.42,0,19.42l.85.47c13.1,7.16,19.92,11.56,29.59,19.43a8.32,8.32,0,0,0,5.64,1.91C62.15,39.41,71.54,16.53,70.3,1.46"/><path class="cls-1" d="M119.16,53.37a2.46,2.46,0,0,1-.15-2.27h0c.77-2.53,2.63-3.81,5.52-3.81a6.39,6.39,0,0,1,4.13,1.19L127.26,53a10.68,10.68,0,0,1-5.08,1.33c-1.49,0-2.53-.34-3-1m11.36-10.89-1.2,3.88a8.65,8.65,0,0,0-4.65-1.1c-4.46,0-8,2.19-9.05,5.58a3.94,3.94,0,0,0,.39,3.7c.91,1.2,2.69,1.83,5.16,1.83a13.79,13.79,0,0,0,5.4-1.08l-.27.87h3.52l4.53-14.74-3.83,1"/><path class="cls-1" d="M138.6,46.22l.23-.75h-3.52L132,56.17h3.5l1.89-6.07c.53-1.74,2.22-2.74,4.63-2.74a7.63,7.63,0,0,1,2.57.36l.26.09,1.66-2.12-.62-.16a12.55,12.55,0,0,0-2.94-.26,10.47,10.47,0,0,0-4.37,1"/><path class="cls-1" d="M147.12,45.47l-3.31,10.7h3.52l3.29-10.7Zm.19-2.52h0a.92.92,0,0,0,.16.85,2.36,2.36,0,0,0,1.9.69c1.05,0,2.29-.47,2.52-1.27a1,1,0,0,0-.17-.87,2.2,2.2,0,0,0-1.77-.68c-1.29,0-2.4.53-2.65,1.27"/><path class="cls-1" d="M164.56,45.47l-7.25,7.87-2.39-7.87h-3.71l3.94,10.7h2.8l10.55-10.7Z"/><path class="cls-1" d="M168.93,45.47l-3.31,10.7h3.52l3.29-10.7Zm.19-2.52h0a.93.93,0,0,0,.16.84,2.36,2.36,0,0,0,1.9.69c1,0,2.28-.47,2.52-1.26a1,1,0,0,0-.17-.87,2.22,2.22,0,0,0-1.77-.67c-1.28,0-2.4.53-2.64,1.27"/><path class="cls-1" d="M178.09,46.26l.24-.79h-3.52l-3.29,10.7H175l1.87-6.06c.56-1.8,2.47-2.83,5.23-2.83,1.57,0,2.58.27,3,.82a1.91,1.91,0,0,1,.07,1.74l-1.95,6.33h3.52l1.94-6.3a3.1,3.1,0,0,0-.33-2.91c-.85-1.12-2.65-1.69-5.37-1.69a11.8,11.8,0,0,0-4.91,1"/><path class="cls-1" d="M193,53.36a2.46,2.46,0,0,1-.15-2.27h0c.77-2.53,2.63-3.81,5.52-3.81a6.37,6.37,0,0,1,4.13,1.19L201.14,53a10.7,10.7,0,0,1-5.08,1.32c-1.49,0-2.53-.34-3-1m-3.54-2.52a5.35,5.35,0,0,0-.27,1.87,3.26,3.26,0,0,0,.65,1.83c.9,1.2,2.69,1.83,5.16,1.83a13.82,13.82,0,0,0,5.39-1.07c-.68,1.74-2.23,2.55-8.18,2.64h-.59l.89,1.87h.27a21.49,21.49,0,0,0,7.85-1.22A5.54,5.54,0,0,0,204,55L207,45.47h-3.52l-.27.89a8.67,8.67,0,0,0-4.64-1.1c-4.46,0-8,2.19-9.05,5.58"/><path class="cls-1" d="M222.28,47.28c1.63,0,2.78.34,3.32,1a1.68,1.68,0,0,1,.38,1,2.66,2.66,0,0,1,0,.45h-9.05c1-1.59,2.88-2.47,5.37-2.47M213,50.63a4.92,4.92,0,0,0-.24,1.72,3.35,3.35,0,0,0,.68,1.87c1.46,1.93,4.64,2.14,5.94,2.14a21.77,21.77,0,0,0,7.17-1.17l.57-.18-1.55-1.68-.24.08a15.57,15.57,0,0,1-5.35.93,4.27,4.27,0,0,1-3.33-1.08,1.92,1.92,0,0,1-.44-1.16,2.73,2.73,0,0,1,0-.43h12.35l.11-.17a3.46,3.46,0,0,0,.39-.85,4.46,4.46,0,0,0,.21-1.56,3.27,3.27,0,0,0-.65-1.8c-1-1.34-3.08-2-6-2-4.79,0-8.68,2.16-9.67,5.38"/><path class="cls-1" d="M244.42,46.82c-.67-.78-2-1.56-4.71-1.56a10.09,10.09,0,0,0-4.46.95l.23-.74H232l-3.29,10.7h3.5L234,50.11c.58-1.88,2.19-2.83,4.77-2.83,1.38,0,2.27.24,2.63.73a2,2,0,0,1,0,1.83l-1.95,6.33H243l1.86-6.06c.58-1.88,2.19-2.83,4.77-2.83,1.41,0,2.27.23,2.63.71a2.07,2.07,0,0,1,0,1.85l-1.95,6.33h3.52l1.94-6.3a3.23,3.23,0,0,0-.32-3c-.81-1.07-2.46-1.59-5-1.59a10.74,10.74,0,0,0-6.08,1.56"/><path class="cls-1" d="M260.37,53.18a2.42,2.42,0,0,1-.2-2.25c.71-2.32,3-3.64,6.25-3.64,1.79,0,3.09.42,3.66,1.17a2.36,2.36,0,0,1,.2,2.2c-.71,2.32-3.07,3.7-6.31,3.7-1.75,0-3-.42-3.6-1.18m.08-6.55a6.93,6.93,0,0,0-3.75,4.06,3.74,3.74,0,0,0,.47,3.48c1.08,1.42,3.35,2.2,6.4,2.2A14.42,14.42,0,0,0,270,55a7,7,0,0,0,3.76-4.1,3.7,3.7,0,0,0-.46-3.44c-1.07-1.41-3.35-2.18-6.43-2.18a14.34,14.34,0,0,0-6.38,1.37"/><path class="cls-1" d="M278.28,42.48l-.92,3H275l-.58,2h2.3l-1.9,6.15a2.7,2.7,0,0,0-.14,1,1.57,1.57,0,0,0,.31.88c.48.64,1.46.93,3.09.93a17.19,17.19,0,0,0,3.64-.34l.18,0,1-2.13-.81.17a12,12,0,0,1-2.65.28c-.94,0-1.13-.15-1.16-.19s-.07-.11,0-.47l1.92-6.18h4.62l.61-2h-4.64l1.24-4Z"/><path class="cls-1" d="M287.17,45.47l-3.31,10.7h3.52l3.29-10.7Zm.19-2.52h0a.92.92,0,0,0,.16.84,2.36,2.36,0,0,0,1.9.69c1.05,0,2.28-.47,2.52-1.27a1,1,0,0,0-.17-.87,2.22,2.22,0,0,0-1.77-.68c-1.29,0-2.4.53-2.64,1.27"/><path class="cls-1" d="M300.18,47.28c1.79,0,3.09.42,3.66,1.17a2.36,2.36,0,0,1,.19,2.2c-.71,2.32-3.07,3.7-6.31,3.7-1.74,0-3-.42-3.6-1.18a1.91,1.91,0,0,1-.37-1.06,3.44,3.44,0,0,1,.17-1.19c.71-2.32,3-3.64,6.25-3.64m-6-.65a6.92,6.92,0,0,0-3.75,4.06,3.73,3.73,0,0,0,.47,3.48c1.07,1.42,3.35,2.2,6.4,2.2A14.43,14.43,0,0,0,303.72,55a7,7,0,0,0,3.76-4.09,3.7,3.7,0,0,0-.46-3.44c-1.07-1.41-3.35-2.18-6.43-2.18a14.35,14.35,0,0,0-6.38,1.37"/><path class="cls-1" d="M313.64,46.26l.24-.79h-3.52l-3.29,10.7h3.5l1.86-6.06c.8-2.56,3.93-2.83,5.24-2.83,1.57,0,2.58.27,3,.82a1.91,1.91,0,0,1,.07,1.74l-1.95,6.33h3.52l1.94-6.3a3.1,3.1,0,0,0-.33-2.92c-.85-1.12-2.65-1.69-5.37-1.69a11.81,11.81,0,0,0-4.91,1"/></svg>