<svg xmlns="http://www.w3.org/2000/svg" viewBox="0 0 55.62 29.56"><defs><style>.cls-1{fill:#fff;}</style></defs><title>Michelin</title><g id="Ebene_2" data-name="Ebene 2"><g id="Ebene_3" data-name="Ebene 3"><path class="cls-1" d="M30.12,10.35a2,2,0,0,0,.48.39,1.87,1.87,0,0,0,1.18.21,1.68,1.68,0,0,0,.58-.21c.13-.08.24-.18.36-.27l.21-.16s.37-.15.53-.25c0,.06,0,.11,0,.12s.08-.08.1-.14a.26.26,0,0,0,0-.18.23.23,0,0,0-.16-.12c-.07,0-.08.06-.06.08l0,0-.07,0a3.11,3.11,0,0,1-.49.16,4.57,4.57,0,0,1-1.28.07,6.76,6.76,0,0,1-2-.48l-.17-.08-.09,0h0a.14.14,0,0,0-.19.12.17.17,0,0,0,.11.15,5.09,5.09,0,0,0,.54.22A1.3,1.3,0,0,1,30.12,10.35Zm2.31,0a1.61,1.61,0,0,1-.48.27,1.81,1.81,0,0,1-.57,0,1.72,1.72,0,0,1-.54-.14,1.63,1.63,0,0,1-.49-.37A6.11,6.11,0,0,0,32.43,10.38Z"/><path class="cls-1" d="M29.36,9.31c0-.06-.08-.06-.11-.06a.71.71,0,0,0-.2,0,.46.46,0,0,0-.29.39.06.06,0,0,0,0,0,.09.09,0,0,0,.06,0h0a.06.06,0,0,0,.05-.06A.19.19,0,0,1,29,9.56a.59.59,0,0,1,.33-.16S29.38,9.36,29.36,9.31Z"/><path class="cls-1" d="M29.66,8.35a.5.5,0,0,0,.27.19.72.72,0,0,0,.29.06l.26,0c.41,0,.79-.64.8-1.25s-.06-1-.46-1.24l-.13-.06a.94.94,0,0,0-.55,0,.77.77,0,0,0-.48.39,1.86,1.86,0,0,0-.22.61,1.84,1.84,0,0,0,0,.66A1.24,1.24,0,0,0,29.66,8.35Zm-.08-1c0-.26.18-1.09.84-1a.73.73,0,0,1,.67.74v0a1.39,1.39,0,0,1-.1.74l-.12.24a.56.56,0,0,1-.4.31h0a.93.93,0,0,0,.43-.78c.05-.48-.18-.9-.52-.93a.49.49,0,0,0-.42.2.26.26,0,0,1,.22.27.26.26,0,0,1-.21.3.24.24,0,0,1-.21-.19,1,1,0,0,0,0,.25,1,1,0,0,0,.19.74l-.06,0a1.15,1.15,0,0,1-.21-.55A1.69,1.69,0,0,1,29.58,7.37Z"/><path class="cls-1" d="M32.52,8.88a1.67,1.67,0,0,0,.24,0,1,1,0,0,0,.29,0,.55.55,0,0,0,.3-.12,1.31,1.31,0,0,0,.4-.55,2.29,2.29,0,0,0,.14-.64A2.05,2.05,0,0,0,33.83,7a.78.78,0,0,0-.86-.6l-.14,0c-.44.14-.62.53-.75,1.07S32.14,8.76,32.52,8.88Zm-.29-.83a1.34,1.34,0,0,1,.09-.74v0a.71.71,0,0,1,.82-.54c.63.1.57.93.52,1.19a1.32,1.32,0,0,1-.09.3,1.22,1.22,0,0,1-.33.48.44.44,0,0,1-.19.07A1,1,0,0,0,33.47,8c0-.48-.18-.9-.51-.93a.54.54,0,0,0-.42.2c.12,0,.21.12.22.28a.26.26,0,0,1-.2.29c-.1,0-.18-.07-.21-.19a1.11,1.11,0,0,0-.05.25,1,1,0,0,0,.22.79.61.61,0,0,1-.24-.38A1,1,0,0,1,32.23,8.05Z"/><path class="cls-1" d="M40.27,21.09a3.67,3.67,0,0,0-.54-1.92l0-.05a3.87,3.87,0,0,0-3.07-4.29l-.31,0h0a8.32,8.32,0,0,0-2.51-1.67.94.94,0,0,0,0-.16h0a2.93,2.93,0,0,0,1.89-2.34,3.46,3.46,0,0,0-.59-2.4v0a5,5,0,0,0-.5-2.92,3.48,3.48,0,0,0-1.56-1.48h0a1.79,1.79,0,0,0-1.77-1,2,2,0,0,0-1.63.82,4.58,4.58,0,0,0-3,3.61,3.1,3.1,0,0,0-.42,4.63,15,15,0,0,0-2.86.3h0a3.92,3.92,0,0,0-3.19-.62l-.11,0a6.64,6.64,0,0,0-1-.2H19A3.13,3.13,0,0,0,18.25,10l-.06-.05h0A7.24,7.24,0,0,0,18,9a2.72,2.72,0,0,0-.74-1.23,2.89,2.89,0,0,0-.84-.58,2.27,2.27,0,0,0,.08-.29.15.15,0,0,0,0-.07s.12-1.14.26-1.81V5c.37-2.29.37-2.33.37-2.35v0a.71.71,0,0,0-.2-.56,1,1,0,0,0-.73-.3,1.19,1.19,0,0,0-1,.57,3.7,3.7,0,0,0-.3.69C14.5,2.33,14,1.36,13.65.65l0,0a1,1,0,0,0-.81-.46,1,1,0,0,0-.35.07A1,1,0,0,0,11.84,0a1,1,0,0,0-.34.06.93.93,0,0,0-.64.92.92.92,0,0,0-.59.69,1.3,1.3,0,0,0,0,.51s0,0,0,.06l0,0c-.22.35-.34,1,.51,3.16v0l.06.15a17.16,17.16,0,0,0,.85,1.79,5.4,5.4,0,0,0,.62.92,3.29,3.29,0,0,0-.49,1.09A3.26,3.26,0,0,0,12,11.19a4,4,0,0,0,.33.72h0s0,0,0,.07a3.43,3.43,0,0,0,1.41,3.2,3.94,3.94,0,0,0,.51.32,2.62,2.62,0,0,0,.92,1.25,3.52,3.52,0,0,0,1,.57h0a3.12,3.12,0,0,0,1.74,1.17,3.38,3.38,0,0,0,.57.11l0,0a3.28,3.28,0,0,0,1.38.77A3.66,3.66,0,0,0,20,21.09H3.07l-.48,1.32H55.13l.49-1.32Zm-1.73-4.26A3.19,3.19,0,0,1,38,21a2.72,2.72,0,0,0-.52-1.8,1.57,1.57,0,0,0,.44-.56c.33-.73.06-1.73-.81-3h0L37,15.62A3.12,3.12,0,0,1,38.54,16.83Zm-12.1-4.41a2.79,2.79,0,0,1,.47.09c.3.12.89.69,1.21.73.06,0,.2,0,0-.14s-.41-.36-.27-.53h0a.17.17,0,0,1,.18-.07,9.74,9.74,0,0,0,1,.2c.08,0,.14,0,.17,0s0,0-.08-.08a6.31,6.31,0,0,1-2.06-.91,2.56,2.56,0,0,1-1-2.37,2.25,2.25,0,0,1,1.61-2c.26-.1-.16-.16-.2-.17s-.11-.13,0-.47A3.8,3.8,0,0,1,30,4.11,3.39,3.39,0,0,1,30.54,4c.25,0,.15-.15-.13-.19,0,0-.1,0-.05-.07a.46.46,0,0,1,.14-.12,1.65,1.65,0,0,1,.82-.24c.59,0,1.1.31,1.16.61a.05.05,0,0,1,0,.07c-.12,0-.21,0,0,.12l.41.17,0,0a3.29,3.29,0,0,1,1.72,3.4h0c0,.07,0,.15,0,.22a1.23,1.23,0,0,1,0,.19c-.13,0-.18,0-.09.13a3.12,3.12,0,0,1,.33.43,2.9,2.9,0,0,1,.38,1.81A2.22,2.22,0,0,1,34,12.18a5.71,5.71,0,0,1-1.45.56c-.14,0-.08.21.56.2.06,0,.17,0,.21.07s-.06.41-.34.57,0,.17.29.07a1.21,1.21,0,0,1,.39.11,7.46,7.46,0,0,1,2.92,2.32c.71,1,1,1.82.75,2.32a1.19,1.19,0,0,1-.86.58h0c-2.48.38-6.77-.3-9.73-1.17a17.71,17.71,0,0,1-2-.72A4.15,4.15,0,0,0,24,12.67l0-.05A15.51,15.51,0,0,1,26.44,12.42Zm10.88,8.67H20.73a2.62,2.62,0,0,1-.21-1.54l.4,0a4.23,4.23,0,0,0,3.47-1.92,16.78,16.78,0,0,0,2.13.79,35.25,35.25,0,0,0,5.24,1.09,24.33,24.33,0,0,0,3,.21,11.5,11.5,0,0,0,1.76-.12,1.3,1.3,0,0,0,.34-.08A2.1,2.1,0,0,1,37.32,21.09Zm-23-11-.08,0c-.13-.07-.38-.21-.43-.44s-.14-.61-.21-.89c.28-.22.31-.46,0-.38A.68.68,0,0,1,13,8.1a9.78,9.78,0,0,1-1.61-2.89c-.61-1.54-.74-2.37-.55-2.6,0,0,0,0,0,0l.08,0h.18a.78.78,0,0,1,.37.64,3.63,3.63,0,0,0,.59,1.6.13.13,0,0,0,.11.06l.08,0a.15.15,0,0,0,0-.2,3.44,3.44,0,0,1-.54-1.48,1,1,0,0,0-.56-.86.52.52,0,0,0-.21,0A1.23,1.23,0,0,1,10.92,2c0-.12-.09-.36.18-.45l.05,0h0c.2,0,.45.07.71,1a6.8,6.8,0,0,0,.79,1.69.15.15,0,0,0,.12.07.13.13,0,0,0,.08,0,.14.14,0,0,0,0-.19,6.59,6.59,0,0,1-.76-1.61,2.18,2.18,0,0,0-.53-1.05c0-.09-.08-.2-.09-.23s-.09-.44.16-.52l.14,0A.41.41,0,0,1,12.2,1l0,.06,1.16,2.77a.1.1,0,0,0,0,.05.12.12,0,0,0,.13,0,.12.12,0,0,0,.07-.17L12.51,1a.22.22,0,0,1,.12-.14.54.54,0,0,1,.19,0,.33.33,0,0,1,.26.15s1.5,2.94,1.78,3.45a2.87,2.87,0,0,0-.22.43c0,.07,0,.14.07.07a3.68,3.68,0,0,1,.3-.39h0c.07-.13.29-.71.38-.9a3,3,0,0,1,.32-.87.55.55,0,0,1,.47-.27c.17,0,.3.09.29.17s-.36,2.32-.36,2.32C16,5.41,16,6.1,15.9,6.49a1.43,1.43,0,0,1,0,.29v0l0,.05a2.83,2.83,0,0,1-.21.62l.12.54h0c.05.23.1.47.12.54.08.31,0,.49,0,.55s.27-.32.32-.53a2.37,2.37,0,0,0-.08-.76,2.44,2.44,0,0,1,.64.45,2.12,2.12,0,0,1,.58,1,6,6,0,0,1,.2,1.09,2.44,2.44,0,0,1-1.92,2.36,2.72,2.72,0,0,1-.68.08,2.47,2.47,0,0,1-1.44-.44,3,3,0,0,1-1.06-2.74,2.91,2.91,0,0,1,.35-.8l.26.12.06.25a2,2,0,0,0,.42.94.87.87,0,0,0,.5.14c.08,0,.27,0,.3-.1S14.38,10.08,14.34,10Zm-.23,4.63a2.88,2.88,0,0,1-1.16-2h0l.2.17A3.07,3.07,0,0,0,15,13.4a3.31,3.31,0,0,0,.86-.11,3.15,3.15,0,0,0,2-1.59,3.37,3.37,0,0,0,.28-.78h0a2.88,2.88,0,0,1,.33,2,2.7,2.7,0,0,1-4.38,1.7Zm2.6,2.14a2.83,2.83,0,0,1-1.58-1,3.53,3.53,0,0,0,.72.08,3.28,3.28,0,0,0,1.33-.28,3.45,3.45,0,0,0,1.95-2.55,4.19,4.19,0,0,0,.07-.78A2.57,2.57,0,0,1,19.84,15,2.76,2.76,0,0,1,16.71,16.81Zm.58.71a3.46,3.46,0,0,0,3.17-2.38,3.24,3.24,0,0,0,0-2.13,3.45,3.45,0,0,0-.48-.86,2.75,2.75,0,0,1,1.36.9,3.06,3.06,0,0,1,.62,2.21A3,3,0,0,1,19.8,17.9,3.14,3.14,0,0,1,17.29,17.52Zm2.28,1.09.4-.08a3.77,3.77,0,0,0,1.84-5.88,3.14,3.14,0,0,0-.7-.66,3.36,3.36,0,0,1,2.44,1.11,3.5,3.5,0,0,1-3.4,5.72A2.86,2.86,0,0,1,19.57,18.61Zm19.88,1.46a2.77,2.77,0,0,1,.17,1h-.79A4.09,4.09,0,0,0,39.45,20.07Z"/><path class="cls-1" d="M18.48,24.21c-1.55.32-3.65,1.46-3.62,3.53,0,1.2,1.45,1.86,3.11,1.82a13.68,13.68,0,0,0,1.93-.22l.61-1.6a4.42,4.42,0,0,1-2.21.08c-1.1-.44-.42-1.59.36-1.95A3.29,3.29,0,0,1,20,25.58a1,1,0,0,1,1,.52l.77-1.85A8,8,0,0,0,18.48,24.21Z"/><polygon class="cls-1" points="26.86 24.17 26.16 26.07 24.87 26.07 25.57 24.17 23.14 24.17 21.2 29.44 23.63 29.44 24.29 27.65 25.58 27.65 24.91 29.44 27.34 29.44 29.29 24.17 26.86 24.17"/><polygon class="cls-1" points="12.37 24.17 10.43 29.44 12.98 29.44 14.92 24.17 12.37 24.17"/><path class="cls-1" d="M7.29,24.17,5.43,27s.11-1.48.14-1.84,0-1-.67-1h-3L0,29.44H2.31l1.41-3.82-.3,3.82H5.48L8,25.69,6.63,29.44H9l1.94-5.27Z"/><polygon class="cls-1" points="32.63 25.55 35.54 25.55 36.05 24.17 30.73 24.17 28.79 29.44 34.17 29.44 34.7 28.02 31.72 28.02 31.94 27.43 34.72 27.43 35.19 26.13 32.42 26.13 32.63 25.55"/><path class="cls-1" d="M51,27.79c0-.37.09-1.81.13-2.64a1,1,0,0,0-.21-.77.71.71,0,0,0-.47-.21h-3l-1.93,5.27h2.15L49.1,25.7l-.17,3.74h3.62l1.94-5.27H52.35Z"/><polygon class="cls-1" points="43.43 24.17 41.49 29.44 44.05 29.44 45.98 24.17 43.43 24.17"/><polygon class="cls-1" points="39.95 24.17 37.47 24.17 35.53 29.44 40.52 29.44 41.16 27.69 38.66 27.69 39.95 24.17"/></g></g></svg>