<svg xmlns="http://www.w3.org/2000/svg" viewBox="0 0 64.22 18.74"><defs><style>.cls-1{fill:#fff;}</style></defs><title>Nokian Tyres</title><g id="Ebene_2" data-name="Ebene 2"><g id="Ebene_3" data-name="Ebene 3"><path class="cls-1" d="M18.72,11.46a8.57,8.57,0,0,0-.59.89c-.16-.27-.34-.53-.52-.8l-1.09-1.39H0v2.52H2.77v5.87H7.92V12.68h2.79V10.19l4.83,4.69v3.67h5.12V14.88l4.85-4.72H19.73Z"/><path class="cls-1" d="M36.17,14.86A2.09,2.09,0,0,0,37.63,13a2,2,0,0,0-.91-1.65,7,7,0,0,0-4.08-1.12c-.41,0-.83,0-1.25,0H25.61v8.39H30.4V15.47L33,18.55h5.42L35,15.19A7.46,7.46,0,0,0,36.17,14.86Zm-3.71-1.31a2,2,0,0,1-1.36.3h-.7V12.43h.68c.2,0,1.58-.07,1.58.69A.56.56,0,0,1,32.46,13.55Z"/><path class="cls-1" d="M58.23,13.47c-.59-.13-1.62-.27-2.24-.36-.39,0-1.05-.09-1.05-.43s.38-.41,1.15-.42a8.49,8.49,0,0,1,2.95.65l1.49-2.17A17.7,17.7,0,0,0,57,10c-.63-.06-1.13-.07-1.36-.07-2.12,0-4.28.49-5.27,1.7A2.07,2.07,0,0,0,49.84,13c0,1.5,1.84,2,2.67,2.18.55.11,1.46.23,2.06.29.37.05,1,.09,1,.44s-.46.51-1.33.51a9.28,9.28,0,0,1-3.43-.9l-1.62,2.3a17.83,17.83,0,0,0,5.74.95,8.63,8.63,0,0,0,4.26-.89c1.45-.8,1.62-1.67,1.62-2.14S60.57,14,58.23,13.47Z"/><polygon class="cls-1" points="43.68 15.43 47.96 15.43 47.96 13.2 43.68 13.2 43.68 12.51 48.32 12.51 48.32 10.16 38.93 10.16 38.93 18.55 48.46 18.55 48.46 16.21 43.68 16.21 43.68 15.43"/><path class="cls-1" d="M2.2,3.47H6c.69,0,1.25-.12,1.59.25s.19,1.12.21,1.78V7.63H10S10,4,10,3.93A2.28,2.28,0,0,0,9.21,2.1a3.2,3.2,0,0,0-2.32-.6H0V7.63H2.2Z"/><rect class="cls-1" x="34.42" y="1.49" width="2.19" height="6.14"/><path class="cls-1" d="M40.57,7.64l4.81,0,1.48-1.83h-5c-1.85,0-2.32-.5-2.32-1.14S39.75,3.39,42,3.39H47.7V7.65h2.18V1.52l-8.35,0c-3.1,0-4.16,1.46-4.16,3S38.19,7.57,40.57,7.64Z"/><path class="cls-1" d="M60,2.09a3.24,3.24,0,0,0-2.33-.61H50.82V7.62H53V3.46h3.81c.69,0,1.25-.12,1.59.25s.19,1.12.21,1.78V7.62h2.2V3.92A2.33,2.33,0,0,0,60,2.09Z"/><path class="cls-1" d="M14.94,7.62h5.4c2.38,0,4.3-1.37,4.3-3.07s-1.92-3.07-4.3-3.07h-5.4c-2.38,0-4.3,1.38-4.3,3.07S12.56,7.62,14.94,7.62Zm.81-4.28h3.78c1.66,0,3,0,3,1.21s-1.35,1.25-3,1.25H15.75c-1.66,0-3-.06-3-1.25S14.09,3.34,15.75,3.34Z"/><rect class="cls-1" x="25.26" y="0.29" width="2.19" height="7.34"/><polygon class="cls-1" points="34.07 7.63 30.4 4.07 34.1 1.52 30.98 1.5 27.65 4.03 31.1 7.63 34.07 7.63"/><path class="cls-1" d="M62.65,0a1.57,1.57,0,1,0,1.57,1.57A1.56,1.56,0,0,0,62.65,0Zm0,2.91a1.32,1.32,0,0,1-1.31-1.35,1.31,1.31,0,1,1,2.62,0A1.32,1.32,0,0,1,62.65,2.91Z"/><path class="cls-1" d="M63.23,1.12c0-.3-.2-.5-.61-.5a1,1,0,0,0-.45.09V2.43h.25V1.58h0l.55.85h.3l-.57-.82A.49.49,0,0,0,63.23,1.12Zm-.81.38V.8a.47.47,0,0,1,.19,0,.32.32,0,0,1,.37.37c0,.24-.14.38-.42.38Z"/></g></g></svg>