<svg xmlns="http://www.w3.org/2000/svg" viewBox="0 0 59.3 12.78"><defs><style>.cls-1{fill:#fff;}</style></defs><title>Pirelli</title><g id="Ebene_2" data-name="Ebene 2"><g id="Ebene_3" data-name="Ebene 3"><rect class="cls-1" x="8.75" y="6.11" width="3.58" height="6.67"/><rect class="cls-1" x="54.56" y="6.11" width="3.57" height="6.67"/><rect class="cls-1" x="46.01" y="6.11" width="3.57" height="6.67"/><rect class="cls-1" x="46.01" y="11.36" width="7.27" height="1.42"/><rect class="cls-1" x="37.44" y="6.11" width="3.57" height="6.67"/><rect class="cls-1" x="37.44" y="11.36" width="7.27" height="1.42"/><rect class="cls-1" x="26.9" y="6.11" width="3.57" height="6.67"/><rect class="cls-1" x="27.79" y="11.36" width="7.31" height="1.42"/><rect class="cls-1" x="27.46" y="6.11" width="7.31" height="1.42"/><rect class="cls-1" x="27.34" y="8.72" width="7.31" height="1.42"/><rect class="cls-1" x="14.83" y="6.11" width="3.57" height="6.67"/><path class="cls-1" d="M57.43,0H0V12.78H6.21V4.58H57.43c1,.06,1.87-1,1.87-2.29S58.46-.08,57.43,0ZM50.27,3H6.21V1.49H50.27c.34,0,.62.38.62.81A.61.61,0,0,1,50.27,3Z"/><path class="cls-1" d="M23.33,10.69h0a2.36,2.36,0,0,0,1.28-2.22c0-1.72-1.08-2.36-1.93-2.36H17.74v4.57h1.85l.92,2.1h4.41ZM20.48,9.2H18.4V7.54h2.08c.37,0,.61.45.61.82S20.87,9.21,20.48,9.2Z"/></g></g></svg>