<svg xmlns="http://www.w3.org/2000/svg" viewBox="0 0 81 25.49"><defs><style>.cls-1,.cls-2{fill:#fff;}.cls-1{fill-rule:evenodd;}</style></defs><title>Vredestein</title><g id="Ebene_2" data-name="Ebene 2"><g id="Ebene_3" data-name="Ebene 3"><path class="cls-1" d="M68.1,14.92c-3.53-1.94-18-9.11-18-9.11a3.87,3.87,0,0,1-.36-.2C32.6,3.87,17.46,10.23,12.09,14.93c17.13-6.47,36.87-6.5,56,0"/><path class="cls-1" d="M48.51,4.27c-.29-1,.49-2.34,4.88-3.77s-13-.14-29,6.76a61.42,61.42,0,0,1,24.11-3"/><path class="cls-1" d="M70.11,22.19a29.77,29.77,0,0,1-.14,3.3c.46,0,.66-.06,1.2-.06s.83.05,1.2.06a29.77,29.77,0,0,1-.14-3.3V20.56a29.77,29.77,0,0,1,.14-3.3,11.49,11.49,0,0,1-1.2,0c-.58,0-.82,0-1.2,0a29.77,29.77,0,0,1,.14,3.3Z"/><path class="cls-1" d="M73.68,21.16a26.74,26.74,0,0,1-.28,4.33,4.59,4.59,0,0,1,1.48,0c0-.44-.07-.88-.07-2.79,0-.9,0-1.45.08-2.26,1,1.1,3.73,4.35,4.36,5a4.33,4.33,0,0,1,.76-.05,4,4,0,0,1,.76.06c0-3.18,0-4.76.23-8.23a4.77,4.77,0,0,1-.66,0,4.89,4.89,0,0,1-.66,0c.1.54,0,3.82,0,5.72,0,0-3.65-4.33-4.74-5.7a3.65,3.65,0,0,1-.66,0,4.77,4.77,0,0,1-.66,0c0,.63.06,2.83.06,3.9"/><path class="cls-1" d="M31.59,25.48h.92c2.3,0,4.64-1.34,4.88-3.76.2-2.08-1.11-4.47-5.11-4.47-1.54,0-2.47,0-3.25,0-.57,0-1.14,0-1.52,0a32.43,32.43,0,0,1,.14,3.3v1.63a32.43,32.43,0,0,1-.14,3.3c.38,0,.95-.06,1.52-.06.41,0,1,0,1.53,0,0-.23-.15-2.38-.15-3V20.32c0-.64,0-2.1,0-2.33a8.27,8.27,0,0,1,1,0A3.64,3.64,0,0,1,35,21.43a4.05,4.05,0,0,1-2.69,3.75,4.48,4.48,0,0,1-.64.08Z"/><path class="cls-1" d="M61.71,22.19a29.77,29.77,0,0,1-.14,3.3c.39,0,.82-.06,3.68-.06,1.61,0,3,.05,3.68.06a1.59,1.59,0,0,1-.07-.51,2,2,0,0,1,.07-.54c-1.35.11-3.49.15-4.81.15,0-.47-.06-.83-.06-1.33s0-.59,0-.9c1.33,0,3.43,0,4.77.11a3,3,0,0,1,0-1c-1.34,0-3.25.07-4.77.09,0-.87,0-2.51.08-3.38.53,0,3.43.09,4.76.15a2.14,2.14,0,0,1-.07-.54,1.67,1.67,0,0,1,.07-.5c-.48,0-2,0-3.68,0-1,0-2.23,0-3.68,0a29.77,29.77,0,0,1,.14,3.3Z"/><path class="cls-2" d="M7.67,23.25c1.21-2,2.4-4.15,3.31-6h2a6.65,6.65,0,0,1,3,.4,1.77,1.77,0,0,1,1.14,1.58c0,1.16-1,1.9-2.72,2.19,1.12,1.35,2.46,2.71,3.74,4.06-.54,0-1.27-.06-1.79-.06s-1.27,0-1.79.06c-.15,0-3.28-3.79-3.28-3.79l0-.49c1.54,0,2.76-.59,2.79-1.71,0-.82-.42-1.49-2-1.55-1.23,2-3.17,5.11-4.38,7.54-.27,0-.94-.06-1.48-.06-.38,0-1.24,0-1.49.06-1.08-2-3.61-6.41-4.75-8.23.54,0,1.8,0,2.31,0s1.72,0,2.23,0c.79,1.78,2.06,4,3.13,6"/><path class="cls-2" d="M42.66,25.43c-2.86,0-4.16,0-4.55.06a29.77,29.77,0,0,0,.14-3.3V20.56a29.77,29.77,0,0,0-.14-3.3c1,0,2.88,0,3.91,0,1.72,0,3.44,0,3.91,0a2.44,2.44,0,0,0-.07.53,2.16,2.16,0,0,0,.07.51c-1.33-.06-4.47-.15-5-.15-.08.87-.08,2.51-.08,3.38,1.49,0,3.59,0,4.93-.09h.08a5.9,5.9,0,0,0,0,1c-1.33-.08-3.68-.11-5-.11,0,.45,0,.26,0,.78s0,.91,0,1.39c1.3,0,4.46,0,5,0h2.21c1.37,0,2.05-.12,2.17-.86.32-1.85-3.81-1.29-3.48-4,.25-2,2.42-2.33,4.5-2.33h5.32c2.17,0,2.78,0,4.27,0a1.07,1.07,0,0,0-.07.44,1.19,1.19,0,0,0,.08.47c-1-.06-2.32,0-3.09,0a9,9,0,0,0,0,1v3a29.77,29.77,0,0,0,.14,3.3c-.39,0-.82-.05-1.4-.05s-1,0-1.39.05a32.43,32.43,0,0,0,.14-3.3v-3a4.53,4.53,0,0,0-.07-1.06l-2,0-2.21,0c-1,0-1.53.27-1.67.79-.47,1.85,4,1.42,3.55,4.38-.27,1.87-2.74,2.18-5.51,2.19,0,0-3,0-4.61,0"/><path class="cls-1" d="M18.53,22.19a32.43,32.43,0,0,1-.14,3.3c.38,0,1.23-.06,4.09-.06,1.61,0,3.45.05,4.08.06a1.94,1.94,0,0,1-.07-.51,2.45,2.45,0,0,1,.07-.54c-1.35.11-3.73.15-5,.15,0-.47-.05-1-.05-1.49a6.4,6.4,0,0,1,0-.74c1.33,0,3.68,0,5,.11a3,3,0,0,1,0-1c-1.33,0-3.49.07-5,.09,0-.87,0-2.51.09-3.38.52,0,3.66.09,5,.15a4,4,0,0,1-.07-.54,2.06,2.06,0,0,1,.07-.5c-.47,0-2.37,0-4.08,0-1,0-2.88,0-4.09,0a32.43,32.43,0,0,1,.14,3.3Z"/></g></g></svg>