<svg xmlns="http://www.w3.org/2000/svg" viewBox="0 0 102.12 14.53"><defs><style>.cls-1{fill:#fff;}</style></defs><title>Yokahoma</title><g id="Ebene_2" data-name="Ebene 2"><g id="Ebene_3" data-name="Ebene 3"><polygon class="cls-1" points="0.05 14.53 7.29 7.29 0 0 1.39 0 8.68 7.29 1.44 14.53 0.05 14.53"/><polygon class="cls-1" points="2.28 14.53 9.52 7.29 2.23 0 3.62 0 10.91 7.29 3.67 14.53 2.28 14.53"/><polygon class="cls-1" points="4.51 14.53 11.75 7.29 4.46 0 5.85 0 13.14 7.29 5.9 14.53 4.51 14.53"/><polygon class="cls-1" points="6.74 14.53 13.98 7.29 6.69 0 8.08 0 15.37 7.29 8.13 14.53 6.74 14.53"/><polygon class="cls-1" points="23.51 0 16.91 6.6 16.49 6.18 22.66 0 21.28 0 15.79 5.48 15.37 5.06 20.43 0 19.05 0 14.68 4.37 14.26 3.95 18.2 0 16.82 0 13.56 3.25 13.14 2.83 15.97 0 14.59 0 12.45 2.14 10.31 0 8.92 0 16.21 7.29 8.97 14.53 10.36 14.53 17.6 7.29 24.89 0 23.51 0"/><polygon class="cls-1" points="33.36 1.81 31.16 1.81 28.97 6.48 26.77 1.81 24.58 1.81 27.99 8.73 27.99 12.85 29.94 12.85 29.94 8.73 33.36 1.81"/><path class="cls-1" d="M37.48,1.72a5.62,5.62,0,1,1-5.62,5.61,5.62,5.62,0,0,1,5.62-5.61M33.84,7.33A3.64,3.64,0,1,0,37.48,3.7a3.64,3.64,0,0,0-3.64,3.63"/><path class="cls-1" d="M55.12,1.72A5.62,5.62,0,1,1,49.5,7.33a5.61,5.61,0,0,1,5.62-5.61M51.48,7.33A3.64,3.64,0,1,0,55.12,3.7a3.64,3.64,0,0,0-3.64,3.63"/><polygon class="cls-1" points="51.36 1.72 48.89 1.72 45.56 6.42 45.56 1.72 43.51 1.72 43.51 12.76 45.56 12.76 45.56 8.21 48.72 12.76 51.2 12.76 47.16 7.35 51.36 1.72"/><polygon class="cls-1" points="67.04 1.81 67.04 6.47 63.28 6.47 63.28 1.81 61.15 1.81 61.15 12.85 63.28 12.85 63.28 8.46 67.04 8.46 67.04 12.85 69.17 12.85 69.17 1.81 67.04 1.81"/><path class="cls-1" d="M77.52,12.85h2.13l-4.07-11h-2l-4.08,11h2.13l1-2.65h3.9ZM73.31,8.4l1.28-3.48L75.88,8.4Z"/><path class="cls-1" d="M100,12.85h2.13L98,1.81h-2L92,12.85h2.13l1-2.65H99ZM95.77,8.4l1.29-3.48L98.34,8.4Z"/><polygon class="cls-1" points="90.86 1.81 89.42 1.81 88.83 1.81 85.74 10.01 82.65 1.81 82.07 1.81 80.63 1.81 80.06 1.81 80.06 12.85 82.07 12.85 82.07 5.64 84.79 12.85 84.91 12.85 86.58 12.85 86.7 12.85 89.42 5.64 89.42 12.85 91.43 12.85 91.43 1.81 90.86 1.81"/></g></g></svg>