<?xml version="1.0" encoding="UTF-8"?>
<svg width="766" height="644" viewBox="0 0 766 644" xmlns="http://www.w3.org/2000/svg">
    <g id="Ebene-1">
        <g id="Gruppe">
            <path id="Pfad" fill="currentColor" stroke="none" d="M 39.462135 280.962067 L 69.833229 280.962067 C 77.800354 280.962067 83.753311 283.214264 87.700256 287.716614 C 91.643127 292.223053 93.616592 298.715149 93.616592 307.20108 C 93.616592 316.879211 91.329811 323.597168 86.752174 327.354889 C 82.170471 331.114655 75.753639 332.994537 67.489479 332.994537 L 59.449116 332.994537 L 59.449116 371.403961 L 39.462135 371.403961 L 39.462135 280.962067 Z M 66.150772 319.037842 C 69.646057 319.037842 71.973526 318.108063 73.129128 316.24649 C 74.280655 314.386963 74.858459 311.259918 74.858459 306.867432 C 74.858459 302.847229 74.301003 299.870758 73.186096 297.933899 C 72.067116 295.999084 69.682678 295.03067 66.036842 295.03067 L 59.449116 295.03067 L 59.449116 319.037842 L 66.150772 319.037842 Z"/>
            <path id="path1" fill="currentColor" stroke="none" d="M 111.255753 280.962067 L 125.326393 280.962067 L 143.860733 324.508606 L 143.860733 280.962067 L 160.384979 280.962067 L 160.384979 371.403961 L 146.87587 371.403961 L 128.341522 324.508606 L 128.341522 371.403961 L 111.255753 371.403961 L 111.255753 280.962067 Z"/>
            <path id="path2" fill="currentColor" stroke="none" d="M 185.059464 280.962067 L 225.704803 280.962067 L 225.704803 294.585114 L 205.046448 294.585114 L 205.046448 317.02774 L 220.789444 317.02774 L 220.789444 330.872559 L 205.046448 330.872559 L 205.046448 357.892822 L 225.928604 357.892822 L 225.928604 371.403961 L 185.059464 371.403961 L 185.059464 280.962067 Z"/>
            <path id="path3" fill="currentColor" stroke="none" d="M 256.18576 369.450836 C 252.238831 367.255615 249.467834 364.016663 247.868713 359.736084 C 246.265518 355.455475 245.467987 350.005035 245.467987 343.378662 L 245.467987 280.962067 L 265.231171 280.962067 L 265.231171 346.393799 C 265.231171 350.041656 265.695038 352.944885 266.626862 355.101471 C 267.554596 357.262115 269.434479 358.340393 272.26651 358.340393 C 275.094452 358.340393 276.95401 357.262115 277.849182 355.101471 C 278.740295 352.944885 279.187897 350.041656 279.187897 346.393799 L 279.187897 280.962067 L 299.060944 280.962067 L 299.060944 343.378662 C 299.060944 350.005035 298.243073 355.455475 296.60733 359.736084 C 294.967499 364.016663 292.196503 367.255615 288.286194 369.450836 C 284.379944 371.644043 279.037323 372.74469 272.26651 372.74469 C 265.491608 372.74469 260.132721 371.644043 256.18576 369.450836 Z"/>
            <path id="path4" fill="currentColor" stroke="none" d="M 371.078339 365.709381 C 367.281952 360.796051 365.385803 353.801422 365.385803 344.717346 L 365.385803 341.480469 L 384.029999 341.480469 L 384.029999 344.717346 C 384.029999 349.333649 384.493866 352.590881 385.42569 354.487061 C 386.357483 356.385254 388.086823 357.335358 390.617737 357.335358 C 393.002167 357.335358 394.601288 356.405579 395.419159 354.544006 C 396.23703 352.684479 396.64801 349.594055 396.64801 345.276855 C 396.64801 340.514069 395.976624 337.03302 394.637909 334.835754 C 393.299225 332.642578 390.804901 331.50528 387.159088 331.432037 L 383.69635 331.432037 L 383.69635 318.59024 L 386.711487 318.59024 C 390.507874 318.59024 393.11203 317.568909 394.528046 315.520172 C 395.940002 313.47345 396.64801 310.067688 396.64801 305.302887 C 396.64801 301.657043 396.163788 298.938965 395.195374 297.152649 C 394.226959 295.366364 392.517975 294.473206 390.060272 294.473206 C 387.753143 294.473206 386.170319 295.421295 385.315826 297.319489 C 384.457245 299.217682 384.029999 301.992737 384.029999 305.63858 L 384.029999 310.328125 L 365.385803 310.328125 L 365.385803 304.85733 C 365.385803 296.743713 367.562714 290.51001 371.916565 286.154114 C 376.270416 281.800293 382.316956 279.623352 390.060272 279.623352 C 397.950104 279.623352 404.09024 281.706696 408.484772 285.875397 C 412.875214 290.044098 415.072479 296.110992 415.072479 304.07608 C 415.072479 309.211182 414.026764 313.585358 411.94342 317.19458 C 409.860077 320.805817 407.219299 323.055969 404.016998 323.949127 C 407.439026 325.216614 410.140839 327.487122 412.114319 330.760651 C 414.08371 334.038239 415.072479 338.727783 415.072479 344.829254 C 415.072479 353.614258 413.09903 360.517334 409.152069 365.542542 C 405.209198 370.565735 398.918518 373.078369 390.284088 373.078369 C 381.275299 373.078369 374.874725 370.622711 371.078339 365.709381 Z"/>
            <path id="path5" fill="currentColor" stroke="none" d="M 441.643127 364.704346 C 437.549713 359.345459 435.502991 352.125 435.502991 343.042969 L 435.502991 310.328125 C 435.502991 300.501465 437.305573 292.947327 440.918854 287.661682 C 444.528046 282.378082 451.022186 279.733215 460.401276 279.733215 C 468.738678 279.733215 474.654999 281.631409 478.154358 285.427795 C 481.653717 289.224182 483.403381 295.069336 483.403381 302.959137 L 483.513245 304.521637 L 465.983948 304.521637 C 465.983948 300.501465 465.666565 297.710114 465.035858 296.147614 C 464.401093 294.585114 462.895569 293.803864 460.515198 293.803864 C 458.802155 293.803864 457.516327 294.324707 456.661835 295.366364 C 455.803284 296.410065 455.225494 298.157715 454.932526 300.613342 C 454.631409 303.071045 454.484924 306.794189 454.484924 311.778717 L 454.484924 319.819092 C 455.44928 318.256592 456.979218 317.02774 459.062561 316.134583 C 461.145905 315.241455 463.530334 314.793854 466.207733 314.793854 C 472.75885 314.793854 477.560272 317.178284 480.61203 321.941071 C 483.663788 326.703857 485.189667 332.994537 485.189667 340.811096 C 485.189667 351.083313 483.330139 358.973145 479.606995 364.48053 C 475.88385 369.98999 469.519928 372.74469 460.515198 372.74469 C 452.027252 372.74469 445.736542 370.063232 441.643127 364.704346 Z M 465.369537 355.549072 C 466.077545 353.241943 466.431549 349.297028 466.431549 343.712311 C 466.431549 340.066467 466.321686 337.293457 466.09787 335.395264 C 465.874084 333.49707 465.353241 331.971191 464.531311 330.817627 C 463.71344 329.664063 462.374725 329.086243 460.515198 329.086243 C 459.245667 329.086243 458.057526 329.460602 456.942596 330.203186 C 455.823639 330.947815 455.005768 331.765686 454.484924 332.658844 L 454.484924 347.398834 C 454.484924 355.140137 456.568268 359.009766 460.734924 359.009766 C 463.119354 359.009766 464.66153 357.856201 465.369537 355.549072 Z"/>
            <path id="path6" fill="currentColor" stroke="none" d="M 513.326904 366.045074 C 509.082916 361.35553 506.962952 355.06485 506.962952 347.175049 L 506.962952 306.196045 C 506.962952 297.933899 509.02594 291.439758 513.160034 286.713623 C 517.2901 281.987457 523.450562 279.623352 531.637451 279.623352 C 539.82428 279.623352 545.968506 281.987457 550.06189 286.713623 C 554.155334 291.439758 556.202026 297.933899 556.202026 306.196045 L 556.202026 347.175049 C 556.202026 354.989563 554.061768 361.261963 549.781128 365.988098 C 545.500549 370.716309 539.453979 373.078369 531.637451 373.078369 C 523.670288 373.078369 517.570862 370.734619 513.326904 366.045074 Z M 536.16217 353.538971 C 536.866089 351.604156 537.220093 349.333649 537.220093 346.727448 L 537.220093 306.643616 C 537.220093 303.667145 536.90271 301.191162 536.272034 299.217682 C 535.637268 297.246246 534.095093 296.259521 531.637451 296.259521 C 529.179749 296.259521 527.637573 297.227936 527.002808 299.16275 C 526.372131 301.099609 526.054749 303.591858 526.054749 306.643616 L 526.054749 346.727448 C 526.054749 353.203278 527.914307 356.4422 531.637451 356.4422 C 533.94458 356.4422 535.450073 355.47583 536.16217 353.538971 Z"/>
        </g>
        <path id="path7" fill="currentColor" stroke="none" d="M 460.771545 104.307983 C 364.522156 104.307983 282.430878 165.943604 251.801407 251.80481 L 270.950165 251.80481 C 300.723114 176.029419 374.557343 122.219788 460.771545 122.219788 C 573.206421 122.219788 664.677795 213.691162 664.677795 326.124023 C 664.677795 438.558899 573.206421 530.030273 460.771545 530.030273 C 374.420013 530.030273 300.487122 476.049255 270.806732 400.081848 L 251.678314 400.081848 C 282.207092 486.130737 364.388885 547.942017 460.771545 547.942017 C 583.081909 547.942017 682.5896 448.434387 682.5896 326.124023 C 682.5896 203.813629 583.081909 104.307983 460.771545 104.307983 Z"/>
    </g>
</svg>