<?xml version="1.0" encoding="UTF-8"?>
<!-- Generated by Pixelmator Pro 3.7.1 -->
<svg width="766" height="644" viewBox="0 0 766 644" xmlns="http://www.w3.org/2000/svg">
    <g id="Ebene-2"/>
    <g id="1"/>
    <g id="Ebene-1">
        <g id="Gruppe">
            <path id="Pfad" fill="#1d1d1b" stroke="none" d="M 5678.92041 -32976.0625 L 5678.92041 35286.4375 M -47075.824219 1620.858398 L 21186.675781 1620.858398 M -47075.824219 2072.08374 L 21186.675781 2072.08374 M -12891.15918 -32976.0625 L -12891.15918 35286.4375 M 39.462135 280.962067 L 69.833229 280.962067 C 77.800354 280.962067 83.753311 283.214264 87.700256 287.716614 C 91.643127 292.223053 93.616592 298.715149 93.616592 307.20108 C 93.616592 316.879211 91.329811 323.597168 86.752174 327.354889 C 82.170471 331.114655 75.753639 332.994537 67.489479 332.994537 L 59.449116 332.994537 L 59.449116 371.403961 L 39.462135 371.403961 L 39.462135 280.962067 Z M 66.150772 319.037842 C 69.646057 319.037842 71.973526 318.108063 73.129128 316.24649 C 74.280655 314.386963 74.858459 311.259918 74.858459 306.867432 C 74.858459 302.847229 74.301003 299.870758 73.186096 297.933899 C 72.067116 295.999084 69.682678 295.03067 66.036842 295.03067 L 59.449116 295.03067 L 59.449116 319.037842 L 66.150772 319.037842 Z"/>
            <path id="path1" fill="#1d1d1b" stroke="none" d="M 111.255753 280.962067 L 125.326393 280.962067 L 143.860733 324.508606 L 143.860733 280.962067 L 160.384979 280.962067 L 160.384979 371.403961 L 146.87587 371.403961 L 128.341522 324.508606 L 128.341522 371.403961 L 111.255753 371.403961 L 111.255753 280.962067 Z"/>
            <path id="path2" fill="#1d1d1b" stroke="none" d="M 185.059464 280.962067 L 225.704803 280.962067 L 225.704803 294.585114 L 205.046448 294.585114 L 205.046448 317.02774 L 220.789444 317.02774 L 220.789444 330.872559 L 205.046448 330.872559 L 205.046448 357.892822 L 225.928604 357.892822 L 225.928604 371.403961 L 185.059464 371.403961 L 185.059464 280.962067 Z"/>
            <path id="path3" fill="#1d1d1b" stroke="none" d="M 256.18576 369.450836 C 252.238831 367.255615 249.467834 364.016663 247.868713 359.736084 C 246.265518 355.455475 245.467987 350.005035 245.467987 343.378662 L 245.467987 280.962067 L 265.231171 280.962067 L 265.231171 346.393799 C 265.231171 350.041656 265.695038 352.944885 266.626862 355.101471 C 267.554596 357.262115 269.434479 358.340393 272.26651 358.340393 C 275.094452 358.340393 276.95401 357.262115 277.849182 355.101471 C 278.740295 352.944885 279.187897 350.041656 279.187897 346.393799 L 279.187897 280.962067 L 299.060944 280.962067 L 299.060944 343.378662 C 299.060944 350.005035 298.243073 355.455475 296.60733 359.736084 C 294.967499 364.016663 292.196503 367.255615 288.286194 369.450836 C 284.379944 371.644043 279.037323 372.74469 272.26651 372.74469 C 265.491608 372.74469 260.132721 371.644043 256.18576 369.450836 Z"/>
            <path id="path4" fill="#1d1d1b" stroke="none" d="M 371.078339 365.709381 C 367.281952 360.796051 365.385803 353.801422 365.385803 344.717346 L 365.385803 341.480469 L 384.029999 341.480469 L 384.029999 344.717346 C 384.029999 349.333649 384.493866 352.590881 385.42569 354.487061 C 386.357483 356.385254 388.086823 357.335358 390.617737 357.335358 C 393.002167 357.335358 394.601288 356.405579 395.419159 354.544006 C 396.23703 352.684479 396.64801 349.594055 396.64801 345.276855 C 396.64801 340.514069 395.976624 337.03302 394.637909 334.835754 C 393.299225 332.642578 390.804901 331.50528 387.159088 331.432037 L 383.69635 331.432037 L 383.69635 318.59024 L 386.711487 318.59024 C 390.507874 318.59024 393.11203 317.568909 394.528046 315.520172 C 395.940002 313.47345 396.64801 310.067688 396.64801 305.302887 C 396.64801 301.657043 396.163788 298.938965 395.195374 297.152649 C 394.226959 295.366364 392.517975 294.473206 390.060272 294.473206 C 387.753143 294.473206 386.170319 295.421295 385.315826 297.319489 C 384.457245 299.217682 384.029999 301.992737 384.029999 305.63858 L 384.029999 310.328125 L 365.385803 310.328125 L 365.385803 304.85733 C 365.385803 296.743713 367.562714 290.51001 371.916565 286.154114 C 376.270416 281.800293 382.316956 279.623352 390.060272 279.623352 C 397.950104 279.623352 404.09024 281.706696 408.484772 285.875397 C 412.875214 290.044098 415.072479 296.110992 415.072479 304.07608 C 415.072479 309.211182 414.026764 313.585358 411.94342 317.19458 C 409.860077 320.805817 407.219299 323.055969 404.016998 323.949127 C 407.439026 325.216614 410.140839 327.487122 412.114319 330.760651 C 414.08371 334.038239 415.072479 338.727783 415.072479 344.829254 C 415.072479 353.614258 413.09903 360.517334 409.152069 365.542542 C 405.209198 370.565735 398.918518 373.078369 390.284088 373.078369 C 381.275299 373.078369 374.874725 370.622711 371.078339 365.709381 Z"/>
            <path id="path5" fill="#1d1d1b" stroke="none" d="M 441.643127 364.704346 C 437.549713 359.345459 435.502991 352.125 435.502991 343.042969 L 435.502991 310.328125 C 435.502991 300.501465 437.305573 292.947327 440.918854 287.661682 C 444.528046 282.378082 451.022186 279.733215 460.401276 279.733215 C 468.738678 279.733215 474.654999 281.631409 478.154358 285.427795 C 481.653717 289.224182 483.403381 295.069336 483.403381 302.959137 L 483.513245 304.521637 L 465.983948 304.521637 C 465.983948 300.501465 465.666565 297.710114 465.035858 296.147614 C 464.401093 294.585114 462.895569 293.803864 460.515198 293.803864 C 458.802155 293.803864 457.516327 294.324707 456.661835 295.366364 C 455.803284 296.410065 455.225494 298.157715 454.932526 300.613342 C 454.631409 303.071045 454.484924 306.794189 454.484924 311.778717 L 454.484924 319.819092 C 455.44928 318.256592 456.979218 317.02774 459.062561 316.134583 C 461.145905 315.241455 463.530334 314.793854 466.207733 314.793854 C 472.75885 314.793854 477.560272 317.178284 480.61203 321.941071 C 483.663788 326.703857 485.189667 332.994537 485.189667 340.811096 C 485.189667 351.083313 483.330139 358.973145 479.606995 364.48053 C 475.88385 369.98999 469.519928 372.74469 460.515198 372.74469 C 452.027252 372.74469 445.736542 370.063232 441.643127 364.704346 Z M 465.369537 355.549072 C 466.077545 353.241943 466.431549 349.297028 466.431549 343.712311 C 466.431549 340.066467 466.321686 337.293457 466.09787 335.395264 C 465.874084 333.49707 465.353241 331.971191 464.531311 330.817627 C 463.71344 329.664063 462.374725 329.086243 460.515198 329.086243 C 459.245667 329.086243 458.057526 329.460602 456.942596 330.203186 C 455.823639 330.947815 455.005768 331.765686 454.484924 332.658844 L 454.484924 347.398834 C 454.484924 355.140137 456.568268 359.009766 460.734924 359.009766 C 463.119354 359.009766 464.66153 357.856201 465.369537 355.549072 Z"/>
            <path id="path6" fill="#1d1d1b" stroke="none" d="M 513.326904 366.045074 C 509.082916 361.35553 506.962952 355.06485 506.962952 347.175049 L 506.962952 306.196045 C 506.962952 297.933899 509.02594 291.439758 513.160034 286.713623 C 517.2901 281.987457 523.450562 279.623352 531.637451 279.623352 C 539.82428 279.623352 545.968506 281.987457 550.06189 286.713623 C 554.155334 291.439758 556.202026 297.933899 556.202026 306.196045 L 556.202026 347.175049 C 556.202026 354.989563 554.061768 361.261963 549.781128 365.988098 C 545.500549 370.716309 539.453979 373.078369 531.637451 373.078369 C 523.670288 373.078369 517.570862 370.734619 513.326904 366.045074 Z M 536.16217 353.538971 C 536.866089 351.604156 537.220093 349.333649 537.220093 346.727448 L 537.220093 306.643616 C 537.220093 303.667145 536.90271 301.191162 536.272034 299.217682 C 535.637268 297.246246 534.095093 296.259521 531.637451 296.259521 C 529.179749 296.259521 527.637573 297.227936 527.002808 299.16275 C 526.372131 301.099609 526.054749 303.591858 526.054749 306.643616 L 526.054749 346.727448 C 526.054749 353.203278 527.914307 356.4422 531.637451 356.4422 C 533.94458 356.4422 535.450073 355.47583 536.16217 353.538971 Z"/>
        </g>
        <path id="path7" fill="#1d1d1b" stroke="none" d="M 460.771545 104.307983 C 364.522156 104.307983 282.430878 165.943604 251.801407 251.80481 L 270.950165 251.80481 C 300.723114 176.029419 374.557343 122.219788 460.771545 122.219788 C 573.206421 122.219788 664.677795 213.691162 664.677795 326.124023 C 664.677795 438.558899 573.206421 530.030273 460.771545 530.030273 C 374.420013 530.030273 300.487122 476.049255 270.806732 400.081848 L 251.678314 400.081848 C 282.207092 486.130737 364.388885 547.942017 460.771545 547.942017 C 583.081909 547.942017 682.5896 448.434387 682.5896 326.124023 C 682.5896 203.813629 583.081909 104.307983 460.771545 104.307983 Z"/>
        <g id="g1">
            <path id="path8" fill="#1d1d1b" stroke="none" d="M 252.759659 134.884583 L 258.517303 129.045532 C 261.41037 126.111816 264.136627 124.549316 266.696014 124.368225 C 269.255432 124.18512 271.89621 125.434326 274.618378 128.11377 C 278.345612 131.788086 279.423889 135.20401 277.85733 138.367676 L 296.452698 148.580872 L 292.607483 152.483063 L 275.257233 142.865967 L 272.152557 146.017395 L 285.759338 159.432922 L 281.767639 163.477539 L 252.759659 134.884583 Z M 270.769104 141.618805 C 272.486237 139.877258 273.369202 138.290344 273.41803 136.854004 C 273.466858 135.419678 272.583893 133.806305 270.769104 132.01593 C 269.576874 130.844055 268.510803 130.048584 267.570862 129.643677 C 266.63092 129.236816 265.670624 129.208313 264.690002 129.554199 C 263.709381 129.908203 262.614807 130.689453 261.418518 131.904053 L 259.652557 133.696442 L 269.247284 143.158936 L 270.769104 141.618805 Z"/>
            <path id="path9" fill="#1d1d1b" stroke="none" d="M 304.541901 140.003418 C 302.584686 140.101074 300.733307 139.535461 298.99176 138.306641 C 297.250214 137.081848 295.419159 135.258942 293.502655 132.837891 L 276.726135 111.679016 L 280.98233 108.301758 L 297.913483 129.664063 C 299.829987 132.081055 301.571503 133.696442 303.134003 134.508209 C 304.696503 135.319977 306.332245 135.051422 308.041229 133.696442 C 309.750214 132.34552 310.384979 130.811523 309.953674 129.102539 C 309.514221 127.397583 308.342346 125.334595 306.425842 122.915588 L 289.49469 101.559387 L 293.710175 98.214661 L 310.486725 119.373535 C 312.403229 121.794556 313.758209 123.991821 314.555725 125.96936 C 315.353241 127.946899 315.487518 129.871582 314.958557 131.739258 C 314.433655 133.615051 313.05426 135.437988 310.824432 137.203918 C 308.586487 138.975983 306.495026 139.909821 304.541901 140.003418 Z"/>
            <path id="path10" fill="#1d1d1b" stroke="none" d="M 304.932526 90.446899 L 308.24469 88.436829 L 332.194885 105.526672 L 318.116119 82.414673 L 322.156647 79.957031 L 343.343964 114.744995 L 340.251526 116.628967 L 315.780487 98.973511 L 330.245819 122.726379 L 326.119843 125.234924 L 304.932526 90.446899 Z"/>
            <path id="path11" fill="#1d1d1b" stroke="none" d="M 334.497955 73.432373 L 342.558655 69.768188 C 346.554413 67.95343 349.801483 67.58313 352.295807 68.655334 C 354.794159 69.735657 356.922272 72.213684 358.684143 76.087402 L 364.881256 89.72876 C 366.740784 93.822144 367.306366 97.234009 366.582092 99.972473 C 365.857819 102.714966 363.603577 104.948853 359.819397 106.670044 L 351.347717 110.515259 L 334.497955 73.432373 Z M 357.768616 103.121887 C 359.567108 102.308105 360.714569 101.366089 361.20285 100.293945 C 361.695221 99.227844 361.764374 98.039673 361.414459 96.745728 C 361.064514 95.447754 360.336151 93.580078 359.225311 91.138672 L 353.752502 79.100464 C 352.800354 76.994751 351.937714 75.44043 351.17276 74.445557 C 350.407776 73.450684 349.48819 72.868774 348.422089 72.710083 C 347.356018 72.551392 345.956268 72.868774 344.214752 73.660217 L 341.419342 74.927734 L 354.838928 104.452454 L 357.768616 103.121887 Z"/>
            <path id="path12" fill="#1d1d1b" stroke="none" d="M 381.442108 96.554504 C 379.578522 95.944153 378.052643 94.755981 376.860413 92.990051 C 375.668182 91.220032 374.61026 88.864075 373.682526 85.92627 L 365.552643 60.171448 L 370.732483 58.539795 L 378.939667 84.526489 C 379.867401 87.472473 380.917206 89.600586 382.085022 90.920959 C 383.256897 92.231201 384.880432 92.566895 386.963776 91.911743 C 389.038971 91.252563 390.178284 90.048157 390.381744 88.298462 C 390.585175 86.544739 390.223053 84.205078 389.291229 81.259094 L 381.088104 55.270325 L 386.223206 53.648804 L 394.34903 79.397522 C 395.276764 82.341431 395.760956 84.876465 395.801666 87.008606 C 395.842346 89.136719 395.280823 90.984009 394.125214 92.548584 C 392.961487 94.109009 391.024628 95.317505 388.310608 96.176086 C 385.58844 97.034668 383.301666 97.162842 381.442108 96.554504 Z"/>
            <path id="path13" fill="#1d1d1b" stroke="none" d="M 400.550201 50.031494 L 406.051483 49.089478 L 418.726471 80.433105 L 420.272675 46.644043 L 425.725159 45.712219 L 433.358612 85.726868 L 428.850159 86.504028 L 423.397675 57.435059 L 421.615448 87.741028 L 418.44162 88.286255 L 406.698456 60.303711 L 411.255768 89.519165 L 406.694397 90.300415 L 400.550201 50.031494 Z"/>
            <path id="path14" fill="#1d1d1b" stroke="none" d="M 458.680084 81.753479 C 456.926331 79.600952 455.990448 76.685547 455.868378 72.994934 L 460.922089 71.73761 C 461.036041 74.358032 461.503967 76.478027 462.325897 78.105591 C 463.147858 79.733215 464.543518 80.567383 466.525116 80.608032 C 468.002167 80.636536 469.121155 80.247925 469.894257 79.444336 C 470.6633 78.638672 471.066132 77.468811 471.094635 75.924622 C 471.135315 74.252258 470.809784 72.84845 470.12619 71.727417 C 469.446686 70.606445 468.352112 69.361328 466.83844 67.990051 L 460.124573 61.815308 C 458.773651 60.578369 457.805237 59.26001 457.211151 57.858215 C 456.621155 56.454407 456.348541 54.741333 456.389221 52.735352 C 456.450256 49.748657 457.353577 47.455811 459.095123 45.8526 C 460.840729 44.243286 463.184479 43.470215 466.134491 43.53125 C 469.353088 43.600403 471.766022 44.503723 473.369202 46.245239 C 474.976471 47.988831 475.912323 50.656067 476.17276 54.253052 L 471.322479 55.45752 C 471.200409 53.073059 470.777252 51.229797 470.048889 49.921631 C 469.324615 48.621582 467.985901 47.946106 466.044983 47.905396 C 464.604553 47.876953 463.489655 48.230957 462.700256 48.963379 C 461.914948 49.705933 461.508026 50.812744 461.475494 52.28772 C 461.45108 53.492188 461.630096 54.513489 462.016663 55.341553 C 462.403229 56.173645 463.070526 57.013916 464.026764 57.870422 L 470.789459 64.04718 C 472.535065 65.658508 473.914459 67.39801 474.931702 69.2677 C 475.948944 71.127258 476.433167 73.234985 476.384338 75.582825 C 476.327362 78.56543 475.371155 80.90918 473.523834 82.612061 C 471.676483 84.31897 469.316467 85.14093 466.431549 85.079895 C 463.01358 85.010742 460.429749 83.901917 458.680084 81.753479 Z"/>
            <path id="path15" fill="#1d1d1b" stroke="none" d="M 488.448944 45.124268 L 504.114655 47.081421 L 503.593811 51.274536 L 493.56369 50.021301 L 491.887268 63.390015 L 500.025299 64.409302 L 499.524811 68.401001 L 491.390839 67.381714 L 489.539459 82.205139 L 499.667206 83.470581 L 499.162659 87.511108 L 483.395233 85.541748 L 488.448944 45.124268 Z"/>
            <path id="path16" fill="#1d1d1b" stroke="none" d="M 515.780518 49.117981 L 523.755737 51.008057 C 527.767822 51.95813 530.514404 53.471802 531.999573 55.563293 C 533.488831 57.654785 533.794006 60.560059 532.911011 64.279114 C 531.710693 69.369446 529.350647 72.069214 525.830933 72.37439 L 526.758667 93.571899 L 521.428284 92.310547 L 520.634827 72.488342 L 516.333862 71.471069 L 511.935272 90.060364 L 506.405487 88.758301 L 515.780518 49.117981 Z M 519.373413 68.002258 C 521.753784 68.567871 523.568604 68.498657 524.821838 67.794739 C 526.075073 67.09082 526.990601 65.495728 527.580627 63.02179 C 527.963135 61.390137 528.085205 60.063599 527.946838 59.050415 C 527.808472 58.035217 527.336487 57.203125 526.526733 56.547974 C 525.717041 55.888794 524.480042 55.363892 522.815796 54.973267 L 520.370361 54.391418 L 517.269775 67.505859 L 519.373413 68.002258 Z"/>
            <path id="path17" fill="#1d1d1b" stroke="none" d="M 546.395752 56.97522 L 551.404663 58.806274 L 547.164795 89.209961 L 563.217041 63.109253 L 568.079468 64.883362 L 545.671448 100.06604 L 540.996155 98.361145 L 546.395752 56.97522 Z"/>
            <path id="path18" fill="#1d1d1b" stroke="none" d="M 578.345581 69.591187 L 583.399292 71.967529 L 566.053101 108.822571 L 561.003479 106.446289 L 578.345581 69.591187 Z"/>
            <path id="path19" fill="#1d1d1b" stroke="none" d="M 577.678284 111.127686 C 577.474854 108.232544 578.443237 104.957031 580.583557 101.319336 L 587.858948 88.912903 C 590.117249 85.071777 592.526123 82.557129 595.08551 81.377075 C 597.640869 80.197083 600.684448 80.640625 604.21637 82.711731 C 607.365784 84.559082 609.123596 86.740051 609.497925 89.2547 C 609.872314 91.767334 609.078857 94.684814 607.129761 98.007141 L 605.498108 100.786255 L 600.863525 98.064087 L 602.312073 95.588135 C 603.260132 93.970703 603.915283 92.682861 604.285522 91.728638 C 604.647705 90.780579 604.688354 89.873169 604.399475 89.002441 C 604.110596 88.135742 603.317139 87.319885 602.019104 86.550842 C 600.684448 85.771606 599.52887 85.474609 598.552307 85.657715 C 597.567627 85.84082 596.680542 86.367737 595.895264 87.246643 C 595.109924 88.125549 594.2229 89.405273 593.238159 91.079651 L 585.067627 105.00177 C 584.013733 106.792114 583.334229 108.277344 583.029053 109.461426 C 582.723877 110.645508 582.772705 111.640381 583.167358 112.456177 C 583.562073 113.27002 584.339233 114.018677 585.494873 114.698242 C 586.73999 115.430664 587.826416 115.699219 588.75415 115.503906 C 589.681885 115.308594 590.507874 114.779602 591.228088 113.92511 C 591.948303 113.0625 592.790588 111.80719 593.754944 110.159241 L 595.284912 107.559143 L 599.923584 110.2854 L 598.397705 112.883423 C 596.342834 116.382813 594.113037 118.677734 591.700073 119.770264 C 589.29126 120.862793 586.45105 120.447754 583.187744 118.533264 C 579.716858 116.496704 577.881714 114.026855 577.678284 111.127686 Z"/>
            <path id="path20" fill="#1d1d1b" stroke="none" d="M 623.279663 95.323608 L 635.962769 104.727112 L 633.44812 108.118652 L 625.326416 102.100586 L 617.302307 112.926147 L 623.885986 117.804932 L 621.489319 121.03772 L 614.90564 116.158997 L 606.010803 128.150391 L 614.209839 134.229492 L 611.784729 137.505035 L 599.020264 128.040527 L 623.279663 95.323608 Z"/>
        </g>
        <g id="g2">
            <path id="path21" fill="#1d1d1b" stroke="none" d="M 449.459686 606.56427 C 447.681549 604.196106 446.802643 600.778137 446.835175 596.310364 L 446.949127 580.241821 C 446.973541 575.843262 447.905334 572.520874 449.736389 570.260559 C 451.567444 568.006348 454.541901 566.891418 458.659729 566.92395 C 462.773499 566.948364 465.7276 568.114136 467.505768 570.409058 C 469.287994 572.710083 470.162811 576.040588 470.134338 580.404602 L 470.024475 596.523987 C 469.991913 600.920532 469.06012 604.30188 467.233124 606.657837 C 465.39801 609.021973 462.443909 610.185669 458.358612 610.157227 C 454.208221 610.130737 451.237854 608.932434 449.459686 606.56427 Z M 462.854889 603.589844 C 463.63205 602.30603 464.030823 600.356995 464.047089 597.738586 L 464.177307 579.153381 C 464.193573 576.575684 463.823303 574.663208 463.062408 573.418091 C 462.305573 572.172974 460.824432 571.542297 458.627167 571.523987 C 456.39328 571.509766 454.887756 572.120117 454.110565 573.353027 C 453.337463 574.589966 452.93869 576.498352 452.922424 579.078125 L 452.792206 597.665344 C 452.77594 600.279663 453.14621 602.234863 453.907135 603.532837 C 454.663971 604.828857 456.161346 605.485962 458.391174 605.498169 C 460.592499 605.514465 462.077698 604.881714 462.854889 603.589844 Z"/>
            <path id="path22" fill="#1d1d1b" stroke="none" d="M 477.649811 566.936157 L 483.521393 566.228149 L 485.714569 584.418701 L 496.52594 583.114563 L 494.328674 564.926086 L 500.204315 564.218079 L 505.278381 606.312012 L 499.406799 607.017944 L 497.030487 587.325989 L 486.223206 588.628052 L 488.595428 608.326172 L 482.723846 609.03418 L 477.649811 566.936157 Z"/>
            <path id="path23" fill="#1d1d1b" stroke="none" d="M 508.20401 562.68811 L 512.114319 561.715637 L 530.616089 586.121582 L 523.796448 558.796143 L 528.569397 557.605957 L 538.8396 598.743652 L 535.181519 599.657104 L 516.337952 574.524902 L 523.348877 602.611206 L 518.474182 603.829895 L 508.20401 562.68811 Z"/>
            <path id="path24" fill="#1d1d1b" stroke="none" d="M 536.581299 554.957031 L 552.010986 549.292969 L 553.528687 553.418945 L 543.64917 557.044434 L 548.483154 570.213745 L 556.494995 567.277954 L 557.935425 571.208618 L 549.927612 574.146484 L 555.282471 588.742004 L 565.255615 585.081909 L 566.71637 589.061401 L 551.189026 594.758057 L 536.581299 554.957031 Z"/>
            <path id="path25" fill="#1d1d1b" stroke="none" d="M 577.8573 541.728638 L 571.595093 545.219849 L 569.454834 541.378723 L 586.963745 531.621216 L 589.108154 535.460327 L 583.029053 538.851868 L 601.530823 572.042786 L 596.363159 574.923645 L 577.8573 541.728638 Z"/>
            <path id="path26" fill="#1d1d1b" stroke="none" d="M 592.139526 528.233765 L 605.648682 518.868958 L 608.155151 522.478149 L 599.508545 528.477905 L 607.50415 540.003418 L 614.515015 535.14093 L 616.903564 538.579224 L 609.892639 543.441711 L 618.754944 556.214355 L 627.482971 550.157593 L 629.899963 553.64679 L 616.309448 563.070618 L 592.139526 528.233765 Z"/>
            <path id="path27" fill="#1d1d1b" stroke="none" d="M 611.003479 514.783691 L 617.440674 509.184723 C 620.683655 506.368958 623.637756 504.969238 626.307007 504.981445 C 628.980347 504.997711 631.617065 506.50528 634.22937 509.506165 C 637.802002 513.615845 638.648315 517.247437 636.768433 520.407043 L 655.253967 532.500122 L 650.944885 536.243652 L 633.708557 524.870728 L 630.233643 527.894043 L 643.27887 542.904602 L 638.815186 546.786438 L 611.003479 514.783691 Z M 629.151245 523.212646 C 631.071838 521.542297 632.117554 519.963501 632.284424 518.480347 C 632.447144 516.995178 631.661865 515.251587 629.920288 513.249634 C 628.776917 511.93335 627.735229 511.023926 626.79126 510.525452 C 625.847229 510.029053 624.85437 509.917145 623.808655 510.201965 C 622.762939 510.490875 621.56665 511.217194 620.223877 512.38501 L 618.250366 514.100098 L 627.450439 524.689697 L 629.151245 523.212646 Z"/>
            <path id="path28" fill="#1d1d1b" stroke="none" d="M 632.813354 495.313477 L 636.650452 490.955566 L 667.424377 508.037262 L 646.570679 479.668121 L 650.371155 475.346832 L 682.731995 502.751617 L 679.590698 506.328278 L 656.161377 486.361633 L 674.545166 512.069641 L 672.331604 514.586304 L 644.515869 499.610352 L 667.322632 520.284973 L 664.140686 523.898254 L 632.813354 495.313477 Z"/>
            <path id="path29" fill="#1d1d1b" stroke="none" d="M 655.843994 467.516022 L 659.196838 462.769531 L 693.832275 487.224274 L 690.483459 491.972809 L 655.843994 467.516022 Z"/>
            <path id="path30" fill="#1d1d1b" stroke="none" d="M 664.331909 455.380188 L 666.342041 451.888977 L 696.753784 455.498199 L 672.3479 441.451965 L 674.805542 437.187653 L 711.552795 458.338379 L 709.672913 461.605774 L 678.500244 457.736145 L 703.585693 472.177063 L 701.083252 476.530914 L 664.331909 455.380188 Z"/>
        </g>
    </g>
</svg>
